/* XPM */
static char *_f48b362196c486be9a30b9e7c65ac64JfDVnoJnqvgRmols[] = {
/* columns rows colors chars-per-pixel */
"30 30 151 2 ",
"   c #030303",
".  c #0B0B0A",
"X  c #0F100D",
"o  c #141414",
"O  c #171815",
"+  c #1C1C1C",
"@  c #20201D",
"#  c #242423",
"$  c #292A25",
"%  c #2C2C2C",
"&  c #2E302B",
"*  c #343434",
"=  c #3C3C3C",
"-  c #47512B",
";  c #4B562C",
":  c #40413E",
">  c #4D5633",
",  c #4E5933",
"<  c #535D36",
"1  c #454544",
"2  c #474846",
"3  c #484847",
"4  c #4B4B4A",
"5  c #545454",
"6  c #5C5C5C",
"7  c #5C6443",
"8  c #60615D",
"9  c #6A7253",
"0  c #6E7658",
"q  c #717A58",
"w  c gray38",
"e  c #6B6B6A",
"r  c #70716F",
"t  c #747473",
"y  c #787877",
"u  c #7B7B7B",
"i  c #87AA1D",
"p  c #8AAD1E",
"a  c #8EB21F",
"s  c #91B61F",
"d  c #93B81F",
"f  c #87A923",
"g  c #8DAF24",
"h  c #8EAE2D",
"j  c #8EB123",
"k  c #91B522",
"l  c #95BB21",
"z  c #98BE21",
"x  c #94B62A",
"c  c #96B92B",
"v  c #99BC2D",
"b  c #93B431",
"n  c #97B831",
"m  c #99BB31",
"M  c #95B439",
"N  c #9BBB3A",
"B  c #9CC322",
"V  c #9FC822",
"C  c #9EC32A",
"Z  c #9FC03B",
"A  c #A2CC23",
"S  c #A0C52C",
"D  c #A5CD2B",
"F  c #A6D124",
"G  c #A1C533",
"H  c #A8CD37",
"J  c #A3C53C",
"K  c #A6C83D",
"L  c #818E5C",
"P  c #85935D",
"I  c #89985E",
"U  c #99B644",
"Y  c #9DBB44",
"T  c #9EBB48",
"R  c #A0BE45",
"E  c #A0BD4B",
"W  c #A3BD56",
"Q  c #A6BE5E",
"!  c #869262",
"~  c #889563",
"^  c #8C9964",
"/  c #8B9769",
"(  c #8E9B68",
")  c #909F64",
"_  c #92A265",
"`  c #96A669",
"'  c #9FAE74",
"]  c #A5BB65",
"[  c #A8BE67",
"{  c #A7BB6C",
"}  c #A8BD6D",
"|  c #A4B475",
" . c #A7B877",
".. c #A9BB76",
"X. c #A3C347",
"o. c #ABCC47",
"O. c #A4C24B",
"+. c #A8C64F",
"@. c #A4C054",
"#. c #A8C456",
"$. c #ADCD52",
"%. c #A6C058",
"&. c #A9C35C",
"*. c #AECA5A",
"=. c #B1CF59",
"-. c #B0D051",
";. c #ACC465",
":. c #ADC36C",
">. c #AFC868",
",. c #B1CC65",
"<. c #B0C76B",
"1. c #B1CA68",
"2. c #B4CD6E",
"3. c #B4CC6F",
"4. c #B5D06A",
"5. c #B8D26D",
"6. c #ADC270",
"7. c #B1C771",
"8. c #B5CD71",
"9. c #848484",
"0. c #8B8B8B",
"q. c #8D8D8D",
"w. c gray58",
"e. c #989898",
"r. c #9B9B9A",
"t. c gray61",
"y. c #9D9D9D",
"u. c #A5A5A5",
"i. c #A7A7A7",
"p. c gray66",
"a. c gray69",
"s. c gray71",
"d. c #B9B9B9",
"f. c #BCBCBC",
"g. c gray",
"h. c gray76",
"j. c #C5C5C5",
"k. c #C6C6C6",
"l. c gray79",
"z. c #CBCBCB",
"x. c gray81",
"c. c #D2D2D2",
"v. c #D3D3D3",
"b. c #DBDBDB",
"n. c #DDDDDD",
"m. c #E0E0DF",
"M. c #EDEDED",
"N. c #EEEEEC",
"B. c #F2F2EF",
"V. c #F5F5F4",
"C. c #FBFBFA",
/* pixels */
"F V s a d d s V A z s V A z k l B A A z s a d z V F F A d a ",
"A B s l B d a d A z x C S v x n v C V l d k a d B F A B z d ",
"s s s B A z i p x v m N R E E E Y M b x c l a p B F z d d d ",
"s s B V A B c n N R &.&.;.<.[ <.[ Q W Y Z G c p d V d a d d ",
"d B A A l S H o.&.;.....` ( ( ( /  .8.>.*.o.G c d d d d a i ",
"d d A B x Z $.;.} | _ 0 1 = % % % 7 P | 7.,.$.K v s B B a a ",
"s d l v N O.<.| ) 0 : 5 r e 6 4 2 * % 7 P  .3.-.J v A A z d ",
"B z k b E ..| 9 4 w t e.g.d.e.y e 3 * $ + < | 7.O.n C V z d ",
"F V b U ;. .9 3 8 e.g.j.c.h.i.e.u 4 4 % % # 7 | ;.Y m l s a ",
"B v M &.8.) 2 8 w.z.n.z.a.i.y 4 4 1 4 4 % $ + ! 7.=.N x a p ",
"j x X.1...q 6 w.x.M.B.n.g.0.: = * * = 4 = % + 7  .3.X.c p i ",
"c n %.7._ 1 r g.M.C.C.V.x.u   @ # * = * = % #   P :.@.n k p ",
"z N ] | 0 4 y g.M.C.V.V.j.6   o . + * 1 & # # + , ' %.Z c l ",
"x Y ] ( 3 5 0.h.c.V.V.b.9.+ O . .   + 4 * # # +   ~ ;.Y C A ",
"n Y [ / 1 3 q.c.d.x.j.9.+ #   . .   X 4 4 & # .   P :.E G A ",
"c E [ ( * 4 0.s.q.9.6 o #   .   . .   5 5 * # o   P :.X.v l ",
"G O.} ( $ 1 u e.1 = o o   .   . . .   4 6 1 # .   P >.X.x k ",
"D o.>.~ % : e u 1 = # . . . . . . o   u u 4 + O   I >.Y c l ",
"D o.&.' 7 * 3 3 = = * #     .   . # = r.9.3 # + < | &.N c d ",
"z m W 6.L + * 1 * * * % + + o + # 1 9.p.q.4 +   P ..@.m k a ",
"k v Y >. .< # = = # % % # # + o = / z.m.r.: + < | [ Y n d z ",
"j c N *.8.P   $ * & % % = 3 3 y t.i.b.z.t &   ~ :.#.N c A F ",
"d k x R ,. .- @ # # # $ = 1 5 y 9.0.r.t * + >  .;.Y v d A F ",
"d s h b E 3.{ ;   + + + + @ * 1 1 1 = %   - | 5.+.n c d A F ",
"d s s x N O.8. .L <   o . X o + # o . < P | :.#.J C l d z V ",
"s d d d x N O.[ } | P >           > I i.2.;.E N C A B s d d ",
"d z A V k x n U W 1.8.| I I ^ P P | >.4.*.Y n c B d d s a p ",
"d z A A B l x x M X.=.&.>.3.3.<.[ &.$.H J v c l s s d z a i ",
"p s z B A B d d j x x N R O.X.T U N v v C V z s s d V V d d ",
"i p d B F A d d k f f g x m v h h z c a z F V j a B A A B z "
};
