/* XPM */
static char *_4ed8291919f443aa2103c4fb763c290ocsyJAZXJjFOYc6I[] = {
/* columns rows colors chars-per-pixel */
"30 30 74 1 ",
"  c #340000",
". c #3C0000",
"X c #440000",
"o c #4A0000",
"O c #540000",
"+ c #5C0000",
"@ c #620000",
"# c #6C0100",
"$ c #750000",
"% c #7C0000",
"& c #830000",
"* c #8B0000",
"= c #940000",
"- c #9C0000",
"; c #A30000",
": c #A90000",
"> c #B20000",
", c #BC0000",
"< c #9A2402",
"1 c #92650C",
"2 c #99610C",
"3 c #986D0E",
"4 c #7B8313",
"5 c #7A8915",
"6 c #7E9E1A",
"7 c #8E8313",
"8 c #948714",
"9 c #958B16",
"0 c #829617",
"q c #869D19",
"w c #8D9C19",
"e c #9B9016",
"r c #949C19",
"t c #86A21A",
"y c #8CA51A",
"u c #86A91D",
"i c #8BAD1D",
"p c #94A41B",
"a c #98A21A",
"s c #92AD1D",
"d c #9DA81C",
"f c #9DA91C",
"g c #8CB01E",
"h c #8FB31F",
"j c #8FB41F",
"k c #93B11E",
"l c #90B31F",
"z c #91B71F",
"x c #92B71F",
"c c #94B71E",
"v c #92B81F",
"b c #94B91F",
"n c #96BC1F",
"m c #93B720",
"M c #93B820",
"N c #94B820",
"B c #94B920",
"V c #94BA20",
"C c #97BC20",
"Z c #98BE20",
"A c #98BF20",
"S c #9BBE20",
"D c #99C021",
"F c #9BC221",
"G c #9CC321",
"H c #9CC421",
"J c #9FC722",
"K c #9FC822",
"L c #A0C822",
"P c #A2CB23",
"I c #A3CC23",
"U c #A4CE23",
"Y c #A5D023",
"T c #A7D224",
/* pixels */
"TLvhMvxJUZhJ4XXXX4UbvxvFJYTICh",
"LFxBFBhvJC4.O+++@OX4xhjvFYKKMx",
"xxvGIFuim5O@#&%%%#@O5miiFYFxMC",
"lMFJLFmx5o#&%*--*%&#o0viCJMhxv",
"BFILnJUqo#%*-:,,:-*%#oqbxxxxhu",
"xCJFxCyX#%*-:,,,,;-*%#oyMjFJvg",
"hmBvjxqo#*-;,,,,,,;-*#osHMKIFM",
"GZxhxqX#*---=:,,:----*@otMFKCM",
"YJiiBtO&%&----------*%&O6bmBxm",
"FCjvxX#%@&%*-----;&%&@$#XiBhii",
"hjMJhO&$+#&%%%%%%%%&#O%&OxBliu",
"MxxsX@%+++#$#&&%&#$#+++%#Ximhi",
"CMhto@OX+X@++#&&#++@XOXO@oubcN",
"xht@+++...o+++++@+@o.X.+++@sJL",
"xlt@%++..X.X.O@@o....X.O+%#iGU",
"bi@&%+++ o+ .......+o +++%&@lb",
"Gc@&%@%++X+ OO. OO +X++%@%&@ix",
"UG&&%%%++@OX@@Oo@@XO@++$&%%&lB",
"Ln@&-%%O@++++++++++++@+$%-&@lb",
"Zl@*-%&$@%O$$++@O%$O%@$&%-&@il",
"cs&--=%&%&$@&$++$&@$&%&%---&xF",
"mxl;-=&-%&%%%%##&%%%%%-&=-;sJI",
"mxy;--=%*=%%*=%%=*%%-*$=--;sKY",
"Bxiw;&-=&-$*-=%%=;*$=&=;%;fZKY",
"vxhhxa:--=$*-;**--*$=--:fJBxFK",
"hxCbjr:---=&--**-;&=---;fUZhvn",
"MCLJMx9<w>----------,p<9CCBxii",
"vFILFBji7:----------:9BBxxBChu",
"hhnKKJCjh8,28>-->82,eLZxxMJKCj",
"uivFILnvhitix3::1CxhFUGhxZIIJC"
};
