/* XPM */
static char *f912e939d7b74a1ae42b069e6544d441O5lQyscgvxmSLeaq[] = {
/* columns rows colors chars-per-pixel */
"30 30 114 2 ",
"   c #010100",
".  c #0B0600",
"X  c #010F06",
"o  c #00000B",
"O  c #130000",
"+  c #190300",
"@  c #001502",
"#  c #101700",
"$  c #230100",
"%  c #2D0200",
"&  c #340000",
"*  c #3B0000",
"=  c #360800",
"-  c #201200",
";  c #241800",
":  c #2A1D01",
">  c #252203",
",  c #2D2502",
"<  c #2D2808",
"1  c #352000",
"2  c #3B2D03",
"3  c #342A08",
"4  c #36300E",
"5  c #430000",
"6  c #4C0000",
"7  c #4C0900",
"8  c #540000",
"9  c #5C0000",
"0  c #590900",
"q  c #630100",
"w  c #6D0000",
"e  c #730100",
"r  c #7C0000",
"t  c #463700",
"y  c #493900",
"u  c #614D05",
"i  c #625309",
"p  c #735800",
"a  c #6D660A",
"s  c #676D0F",
"d  c #6F6C0E",
"f  c #746F0E",
"g  c #71720F",
"h  c #6F7410",
"j  c #767A11",
"k  c #830000",
"l  c #8C0000",
"z  c #930000",
"x  c #9C0100",
"c  c #A30000",
"v  c #AC0000",
"b  c #B30000",
"n  c #BB0000",
"m  c #9C2301",
"M  c #9A3E04",
"N  c #844D07",
"B  c #866400",
"V  c #876F0F",
"C  c #94600B",
"Z  c #9D6A0D",
"A  c #997200",
"S  c #917510",
"D  c #947D12",
"F  c #9B7B11",
"G  c #A67F00",
"H  c #758213",
"J  c #7C8313",
"K  c #838A15",
"L  c #938313",
"P  c #8B9318",
"I  c #849E19",
"U  c #9A9217",
"Y  c #959A19",
"T  c #B08400",
"R  c #B98F00",
"E  c #A08313",
"W  c #86A41B",
"Q  c #8AA71C",
"!  c #86A91D",
"~  c #8BAD1D",
"^  c #93AB1D",
"/  c #9CA91B",
"(  c #8EB21E",
")  c #91B51F",
"_  c #93B81F",
"`  c #99BC1F",
"'  c #A58729",
"]  c #92B720",
"[  c #95BB20",
"{  c #99BE20",
"}  c #C89B00",
"|  c #D5A917",
" . c #DDB63B",
".. c #99C021",
"X. c #9BC221",
"o. c #9EC120",
"O. c #9CC321",
"+. c #9CC421",
"@. c #9DC622",
"#. c #9FC722",
"$. c #9FC822",
"%. c #A0C822",
"&. c #A2CB23",
"*. c #A2CC23",
"=. c #A3CC23",
"-. c #A3CD23",
";. c #A5CF23",
":. c #A5D023",
">. c #A6D124",
",. c #A7D224",
"<. c #FDCE3B",
"1. c #FFD635",
"2. c #FFD638",
"3. c #FFE76A",
/* pixels */
",.%._ ( ] _ ( #.:.[ ) #.*.d 5 * 5 5 J X.) ( ] [ $.,.,.*.[ ( ",
"%.X.) [ X.[ ( [ $.[ _ j 5 8 q 9 9 q 8 5 j ) ( ] $.*.%.#.[ ) ",
") _ _ X.*.X.! ~ ] [ h 8 q w k k r k w q 8 H ( ~ X.,.#.) [ [ ",
") ] X.#.%.#.] ( ) h 8 e k r z c c l r k w 7 H ~ ] +.] ( ) ) ",
"[ X.%.%.X.#.%.#.j 8 e r l x b n n b c l r e 8 I ] ) ] _ ( ! ",
") [ #.#._ _ $.W 6 w k l x v n b b n c c l k w K [ ] X.+.( ( ",
"( ] [ _ ( _ [ h 6 e z x z x x x x z z z z k q 6 ~ ` $.*.X.] ",
"#.[ ) ( ) ) I 8 e l l e z x x x k e q 7 0 9 q 8 J ] X.$.X.] ",
":.%.( ~ [ [ s 9 k r r z x k l l q 9 5 = 6 8 8 0 5 I ] ] ] ) ",
"X.[ ( _ $.g 8 e r e l z e e r q 9 * . o o @     # ) [ ( ( ~ ",
"( ) ] %.X.9 q q w w r e w 6 9 9 5 . u G A y : ; t ` X.( ! ! ",
"] _ _ _ g q q 9 9 9 w 8 5 6 q 7 $ > } 1.<.| p , t ~ [ ] ( ~ ",
"[ ] ( W 9 q 6 9 6 5 9 6 & 6 6 = $ < R <.3.2.B X y W _ ` ) ] ",
"_ ( ~ ~ q 9 5 & * 5 6 & 5 * 5 $   , o T  .' y , t Q ( ] #.*.",
") ( W i q 9 9 6 5 6 * 8 * * 5 $     : 4 1 - ,   > ! ) ] #.*.",
"] ) ( 9 9 w 9 9 8 9 8 9 & * * * O     : 3 2 .   $ W _ [ [ [ ",
"X.` N 9 r r w 9 q 9 q 9 5 6 6 5 & % +       + & 5 Q _ ] ] ( ",
";.{ z e k r r 9 9 9 9 q 8 6 8 & 6 6 & $ & $ 8 6 6 ^ [ ( ] X.",
";.{ r k r r r w 9 e 8 q 8 8 8 5 9 9 * 8 5 6 9 8 a #.[ _ _ ] ",
"{ ) z r z r r r r k w 8 q e 6 9 9 w q 9 9 8 e r ~ ~ ) [ _ ( ",
") ) b z x e k r r r e 9 r r w 9 q r w w q w k z P ( ) [ ` X.",
") _ L x x l r z k l r r r k w 9 z l e r r r k V _ [ ( _ #.*.",
") ) ( b x x x z k x e l l r r e z l e k r z b / [ ) ) [ #.:.",
"{ ) ! L b x c c x x l k c l r l x x l e l c F ,.X.( ) X.$.:.",
") ) ) ( L n m U v x x z c l k x x c k l x b Y X.#.%._ ] X.%.",
") ) ` _ ] Y _ Y b x x x x x x x x x x x b F ) ) X.*.{ ( _ _ ",
"[ [ %.#.] ) ( ( S b x x x c x x x c x b F ] ) [ [ [ [ ] ( ( ",
"] X.*.%.X.] ] ~ ~ X.E b x x x x b D M Z X.] ] [ _ ) [ [ ( ! ",
"~ ) X.#.#.+._ ( ( ( ) ^ ] Z v v C _ ) _ #.#.{ ) ) [ %.%.[ ) ",
"! ( ( X.,.*._ _ ) ! ! ~ ) ] ) ! ~ [ ] ( { :.X.) ) { *.:.X.[ "
};
