/* XPM */
static char *df3c8edd527649d5a1e955750d36992b9yHooSNLATJjOr0Z[] = {
/* columns rows colors chars-per-pixel */
"30 30 111 2 ",
"   c #010100",
".  c #0B0600",
"X  c #000E06",
"o  c #00000B",
"O  c #130000",
"+  c #190300",
"@  c #001502",
"#  c #101700",
"$  c #230100",
"%  c #2D0200",
"&  c #340000",
"*  c #3B0000",
"=  c #360800",
"-  c #241800",
";  c #2A1D01",
":  c #252203",
">  c #2D2502",
",  c #2D2808",
"<  c #352000",
"1  c #3B2D03",
"2  c #342A08",
"3  c #36300E",
"4  c #430000",
"5  c #4C0000",
"6  c #4C0900",
"7  c #540000",
"8  c #5C0000",
"9  c #590900",
"0  c #630000",
"q  c #6D0000",
"w  c #730100",
"e  c #7C0000",
"r  c #463700",
"t  c #473800",
"y  c #493900",
"u  c #513B00",
"i  c #574200",
"p  c #645609",
"a  c #685E09",
"s  c #735800",
"d  c #726B0D",
"f  c #6B710F",
"g  c #72700F",
"h  c #717710",
"j  c #787C11",
"k  c #830000",
"l  c #8C0000",
"z  c #930000",
"x  c #9C0000",
"c  c #A30000",
"v  c #AC0000",
"b  c #B30000",
"n  c #BB0000",
"m  c #9C2201",
"M  c #854E07",
"N  c #866400",
"B  c #94620C",
"V  c #9D6A0D",
"C  c #997200",
"Z  c #8A7310",
"A  c #947310",
"S  c #957B11",
"D  c #9A7911",
"F  c #7B8313",
"G  c #858D15",
"H  c #958414",
"J  c #9D8212",
"K  c #968E16",
"L  c #9C9116",
"P  c #939D19",
"I  c #999D19",
"U  c #B08400",
"Y  c #B98F00",
"T  c #86A31A",
"R  c #89A41B",
"E  c #86A91C",
"W  c #8AAD1D",
"Q  c #9DA71B",
"!  c #92AD1D",
"~  c #9EAC1C",
"^  c #8EB21E",
"/  c #91B51F",
"(  c #98B41E",
")  c #93B81F",
"_  c #98BC1E",
"`  c #A58729",
"'  c #93B720",
"]  c #95BB20",
"[  c #98BE20",
"{  c #98BF21",
"}  c #C89B00",
"|  c #D5A917",
" . c #DDB63B",
".. c #9AC121",
"X. c #9BC221",
"o. c #9BC321",
"O. c #9EC120",
"+. c #9CC322",
"@. c #9DC622",
"#. c #9EC622",
"$. c #9FC822",
"%. c #A1C922",
"&. c #A3CC23",
"*. c #A3CD23",
"=. c #A4CE23",
"-. c #A5D023",
";. c #A7D224",
":. c #FFD635",
">. c #FFD638",
",. c #EFC540",
"<. c #FFE76A",
/* pixels */
";.%./ ^ ] ' ^ X.&.] ' F 4 4 4 4 g ;.%.X.) ^ / X.$.-.;.&.o.^ ",
"%.X.) ] X.' ^ ] $.F 4 5 0 8 8 0 7 4 j ' ) ^ / ) #.-.&.+.] / ",
"/ ) ) X.-.X.E E F 7 0 q k e e k q 0 7 f ' ' ^ E +.-...) ] ] ",
"^ ' X.#.$.X.' F 5 q e e l c c z e k w 7 h X.) W ) +.' ^ / / ",
"] X.&.%._ #.! 7 w e l x v n n b x l k w 7 F #._ ) / ) ) ^ E ",
"' ] #.#.) ] G q k z x v n b b n v x z e w 5 T #.] / +.o.^ ^ ",
"^ / ] ) ^ E 5 0 k z z z z x x x x z x l w 5 F -.+.) $.-.+.) ",
"#.{ / ^ ' j 7 0 8 9 5 0 w k x x x z w l l w 7 W ..^ +.$.o./ ",
"=.#.^ W T 4 9 7 7 5 = 4 9 0 l k l x l e e k 8 f ) ' ' ' ' / ",
"X.] ^ ] ' #     @ o o . 4 8 0 e w w z l w e q 7 f X.] ^ W W ",
"^ / / X._ r - ; i C U i   4 8 8 5 q w e q q 0 0 8 X.X.^ W E ",
"' ) ' _ ' r > s | ,.:.} : $ 6 0 5 4 7 w 8 7 0 0 0 d ] ' ^ W ",
"] ] ^ ' R y @ N >.<.>.Y 2 $ = 5 5 & 5 8 4 5 7 5 8 8 R ] ' ' ",
") ^ W W E t > u `  .U o >   % * * 4 & 5 4 * & 4 0 0 / ' #.%.",
"^ ^ E W E :   , + < 3 ;     $ 4 4 * 5 * 5 4 5 0 8 0 p / #.%.",
"] ' ^ ] ( $   . 1 2 ;     O * * * & 7 8 8 7 8 7 q 0 8 ] ] ' ",
"X.] ) ] ( 4 % +       + % & * 5 5 4 8 0 8 0 8 q k w 8 M / / ",
"&.&.] / F 6 5 9 $ & % & 5 5 % 8 5 7 0 8 8 8 7 e e k w l ( ] ",
"&.#.] ^ E a 7 8 5 4 7 * 8 8 4 5 7 7 8 7 q 0 q e e e e e ! ] ",
"X.) ) / ] ! e w 7 8 7 0 q 8 8 7 w q 8 q k e e e e z e z W / ",
") ' / ] $.P z k q 0 q q k 0 8 q e e 8 w e e e e w x z b ( ] ",
"^ / ] $.&.$.Z k e e e w l l 8 q k e e e z k z k z x c H $.-.",
"' ) ^ ' +.$.~ b l e e e l z w e e l l w x k z x x x b ^ &.;.",
"] ) W W ] #.&.J v l w l x x l e l c k l x x c x x v H X.$.-.",
") ^ ^ ^ ) ] $.I b x l k c x x k l x x x x v K m n L ] ) X.#.",
"^ ' ] X.^ ' ' ) A b x x x x x x x x x x x b P / Q &.] ^ ) ] ",
") X.$.+.' ^ ^ ^ ! D v x c x x x x x x x b S / ] ] X.] ' ^ W ",
") X.&.&.X.) ) ^ ! X.V M H b x x c x b J X.' ' ] ^ / ] ] ^ E ",
"W ^ ..+.$.+.) ^ ! ^ ) ! ' V v v B ) ! ] X.$.] ) ) ] #.$.] ) ",
"E ^ ^ X.-.&._ ) / W T W / ' / E W ] ' ^ ] -.#./ ) ] &.-.X.] "
};
