/* XPM */
static char *_bf86fcd7aa04d02d336698fb5d8da2bTxBmoINxWvYM42Eo[] = {
/* columns rows colors chars-per-pixel */
"30 30 110 2 ",
"   c #010001",
".  c #00000A",
"X  c #140000",
"o  c #0F1401",
"O  c #151300",
"+  c #1F1A03",
"@  c #141A0C",
"#  c #260300",
"$  c #330000",
"%  c #3B0000",
"&  c #361200",
"*  c #2D2302",
"=  c #342700",
"-  c #352800",
";  c #3A2F06",
":  c #430000",
">  c #4C0000",
",  c #450E00",
"<  c #490C00",
"1  c #540000",
"2  c #5B0100",
"3  c #630000",
"4  c #6B0200",
"5  c #610F00",
"6  c #6E0800",
"7  c #740100",
"8  c #7C0000",
"9  c #611000",
"0  c #572D02",
"q  c #413100",
"w  c #5B4501",
"e  c #655004",
"r  c #675809",
"t  c #66630C",
"y  c #6A6B0E",
"u  c #706B0D",
"i  c #71710F",
"p  c #766117",
"a  c #7A7C11",
"s  c #830000",
"d  c #8C0000",
"f  c #940000",
"g  c #9C0100",
"h  c #9C0C00",
"j  c #A30000",
"k  c #AB0000",
"l  c #B40000",
"z  c #BA0000",
"x  c #872E03",
"c  c #893003",
"v  c #C30000",
"b  c #9A4506",
"n  c #9C4906",
"m  c #8A5B0A",
"M  c #9A5409",
"N  c #945D0A",
"B  c #9D5909",
"V  c #8C6C00",
"C  c #96630C",
"Z  c #9A660D",
"A  c #946F0F",
"S  c #9C6D0E",
"D  c #977701",
"F  c #95700F",
"G  c #A57B00",
"H  c #919618",
"J  c #939D19",
"K  c #B08800",
"L  c #BE9200",
"P  c #86A61C",
"I  c #87A91D",
"U  c #8BAD1D",
"Y  c #91A11A",
"T  c #91AF1D",
"R  c #99AB1C",
"E  c #8EB21E",
"W  c #91B51F",
"Q  c #9CB31E",
"!  c #94B81F",
"~  c #A0A51A",
"^  c #A0B41E",
"/  c #93B720",
"(  c #95BB20",
")  c #9ABD20",
"_  c #98BE20",
"`  c #C79B00",
"'  c #C99C00",
"]  c #D8A500",
"[  c #99C021",
"{  c #9AC221",
"}  c #9BC221",
"|  c #9CC321",
" . c #9CC421",
".. c #9DC622",
"X. c #9FC722",
"o. c #9FC822",
"O. c #A0C822",
"+. c #A1C822",
"@. c #A2CB23",
"#. c #A2CC23",
"$. c #A3CD23",
"%. c #A4CF23",
"&. c #A6D023",
"*. c #A6D124",
"=. c #A7D224",
"-. c #FDCE3E",
";. c #FFD732",
":. c #FCD453",
">. c #FCD95F",
",. c #FFE04F",
/* pixels */
"=.O.! E / W E X.#.} E o.a : : : : a #.( ! E ! ( O.&.=.#.( E ",
"O.} W ( } ( E ( o.( i : 1 3 3 2 3 1 : i ! ! E ! o.&.X.X.( W ",
"W ! ! } &.} I U / y 2 4 4 s s s s 4 4 2 y ( E I { &.{ W _ _ ",
"E / } X.O.} ! W t 1 7 s s f j j f s s 7 1 y W E ! X./ W W E ",
"( } #.X.! O.o.u 2 7 s d j l v v l j f 8 8 2 u W W W / _ E I ",
"/ ( X.X.W _ W > 6 s f j j k j k k j g f s 6 > U _ W } { W U ",
"E / ( ( W U r > 7 f d f s 3 4 4 3 s f d f 7 1 y / ( o.#.} _ ",
"X.( E E W I 1 8 d d 4 6 2 1 1 1 1 2 6 6 d d 8 1 E W } o.[ E ",
"&.X.U U T w 2 s 4 3 < & X # # # # X & < 3 4 s 2 w I ( ( / E ",
"} ( / ( } 1 8 3 1 , + . ; O     o ; . + , 1 3 8 1 ( ( E U U ",
"E W ( W 0 2 4 1 : r ` ] V w - - w V ] ` e : 1 4 2 0 E E U I ",
"/ W / / > 2 3 1   K ;.>.-.L . . L -.>.;.K . 1 3 3 > / / E U ",
"( ( U 5 2 8 2 $ o w ' ,.:.G @ @ G :.,.' w o % 2 8 2 9 / ( / ",
"W E P 4 8 3 2 $     w D p ; * * q p D w     $ 2 2 8 4 T O.O.",
"W I 3 8 8 2 2 % $   + = - *     * = = +   $ % 2 2 8 s 3 ) O.",
"( U 4 s 8 8 1 % : $                     $ : % 1 8 8 s 3 W / ",
"} ! 8 8 s 8 2 3 2 % : $   X     X   $ : % 2 3 2 8 s 8 s U W ",
"#.X.2 s g 7 3 2 3 1 > 2 % : > : : % 2 > 1 3 2 2 7 g s 2 W ( ",
"O.) 8 d g s 8 2 2 4 2 3 1 > 3 3 > 2 3 2 4 2 3 8 s g d 7 T ( ",
"! ! c j g g 8 8 4 8 1 7 8 2 2 2 2 8 8 1 7 4 8 8 g g g c W U ",
"W W ! l g g s 8 d 8 7 s s s 2 2 s s 8 4 s d 8 s g g l _ ( ! ",
"E E W n k g j s s g 8 8 g f 7 7 f g s 8 g s s g g k b U o.&.",
"/ ! E ! C C j g f f 7 f j f s s f j f 7 f f g j m N ! ( #.=.",
"( ! I U ! ^ l g k g s s g g d d j g s s g k g l Q E W _ o.&.",
"! E E E W ! B g F k g f g g f f g g f g k A g B } X.( W } o.",
"E ! } ( E ! _ J H z h j j g j g g j j h z J J E | O.( / ! W ",
"( ( o.o./ W E E U S v b Z l g g l C n v S / W / ( ( ( / E U ",
"! | #.o.{ ( E U U ! R ! [ B l k M W R R X./ W ( W W ( ( E U ",
"E E _ X.X.{ ! E T W W W / ) R J U W ( ( | X.) / ! ( o.o.( W ",
"I U W X.&.o.[ ! W I P U / ( W U U ( ( W ) $.X.E W _ #.#.X.( "
};
