/* XPM */
static char *_891e394c2de409e9817839ab586a7a4dHGzFFZLMST6Zrqz[] = {
/* columns rows colors chars-per-pixel */
"30 30 97 2 ",
"   c #85AE16",
".  c #86AA1B",
"X  c #8AAD1D",
"o  c #89B317",
"O  c #8EB912",
"+  c #8EB21D",
"@  c #8FB918",
"#  c #91B61F",
"$  c #93BA1E",
"%  c #8FAB26",
"&  c #90AC26",
"*  c #9AAF29",
"=  c #95B624",
"-  c #95BB20",
";  c #98BF20",
":  c #9FB62A",
">  c #9EAF31",
",  c #9FB130",
"<  c #A3B531",
"1  c #AAB137",
"2  c #A9BF32",
"3  c #ACB33A",
"4  c #B1B93C",
"5  c #96C11B",
"6  c #99C31D",
"7  c #9FCA1F",
"8  c #A2D01E",
"9  c #9CC421",
"0  c #9FC822",
"q  c #9FC428",
"w  c #A2CC23",
"e  c #ABCC2C",
"r  c #A6D123",
"t  c #AFC534",
"y  c #B4C537",
"u  c #B6C33B",
"i  c #B9C53D",
"p  c #B6B643",
"a  c #BAB747",
"s  c #B5BA41",
"d  c #B9B944",
"f  c #CEBE54",
"g  c #D1BE56",
"h  c #D2BF5D",
"j  c #B5D040",
"k  c #C3C34A",
"l  c #C6CE53",
"z  c #CBCA57",
"x  c #D5C05D",
"c  c #DBC85F",
"v  c #DCC760",
"b  c #D6CC61",
"n  c #D9CF67",
"m  c #E3C567",
"M  c #E3C56B",
"N  c #E6C96E",
"B  c #E9CB6D",
"V  c #E7CB71",
"C  c #EACA73",
"Z  c #EFCD7A",
"A  c #F1CF7C",
"S  c #EED17B",
"D  c #F1D079",
"F  c #F4D07A",
"G  c #F2D07D",
"H  c #F4D37E",
"J  c #F7D57D",
"K  c #F6D57F",
"L  c #F1D080",
"P  c #F3D281",
"I  c #F5D381",
"U  c #F7D581",
"Y  c #F9D783",
"T  c #FAD984",
"R  c #F9D886",
"E  c #FAD987",
"W  c #FDDB86",
"Q  c #FCDA87",
"!  c #F2D488",
"~  c #F3D78D",
"^  c #FBDA88",
"/  c #FCDA89",
"(  c #FDDC89",
")  c #FCDC8A",
"_  c #FADA8E",
"`  c #FEDE8C",
"'  c #FFDE8C",
"]  c #FFDF8D",
"[  c #FCDF93",
"{  c #FFE297",
"}  c #FFE399",
"|  c #FBE39F",
" . c #FBE3A2",
".. c #FBE4A4",
"X. c #FEE6A7",
"o. c #FDEAAE",
"O. c #FFECAF",
/* pixels */
"r 0 # + - # = 9 r ; # 0 w - + - 0 w w 9 # + @ - w w r w - + ",
"w 9 = - ; $ + $ 0 ; # 9 0 - # = $ 9 9 $ $ = + = 0 w w 0 - # ",
"# # # 9 w ; . X = $ ; # # - $ # + X X # $ - X X 9 w 9 = - - ",
"# $ ; 0 w 9 = # + # - - - - - $ # # = $ - 9 - X - 9 - + # # ",
"- 9 w 0 - 9 w 0 - + # w w $ = $ 5 w w $ 9 w 9 - - + - # X % ",
"# - w 9 = ; w ; # # # 5 $ @   o $ $ - $ 9 0 w 9 $ = 9 9 @ X ",
"+ = $ $ # # $ # X # $ + . . . . X . X + = $ w w 9 9 9 w 9 - ",
"9 ; # + # # $ - ; @ + > 3 3 3 1 3 1 : X o + - w 9 + 9 9 - # ",
"r 9 X X - - + 9 w @ % a g f f f f x a %   + $ $ # # - - # + ",
"9 ; # - 9 9 - @ $ : p x N M N S Z V x 4 *   o + 9 9 - # X X ",
"+ + $ 9 w w ; o % p x V G Z P ` ` I V x p % X = 9 0 9 X % . ",
"- = = ; 9 $ . < a x N D U E ) ^ W W G C h a 2 0 9 ; - $ + X ",
"- - + # - o + 3 g N G K E ` ` E ^ { ` Z M f i 0 $ # # - - - ",
"# + X X + $ 9 u f M A E ` ^ T W } o. .P m z 4 + @ $ # - 9 w ",
"# + X X $ 5 w u f M D E ( E T W } O. .P m f 3 + @ - # # 9 0 ",
"$ # % - w 6 o 3 f M Z A D W ) E ^ { [ Y N f y 0 $ X - - - - ",
"9 $ $ 9 9 $ X 3 f N S ! ~ _ ) U J W / Y N f y w 5 - - - + # ",
"r w $ = X o $ 4 x B E X.o.[ J A D E E F B g 4 = 7 w 9 + - - ",
"w 9 - + . o $ y k c G | X._ A F G Y A V v a < # $ 9 - # = - ",
"; - # # - + @ 5 r k x D W I A J J D N x p = # $ + X # ; + + ",
"= - = - 0 ; = 5 8 e k c B b n G I V x d : @ @ = + X = - - 9 ",
"+ + $ 9 w 0 - 9 r 8 r k z e j V Z x s = @ - # + $ ; + $ 0 w ",
"$ # + - 9 0 0 0 0 $ 5 y y O q l z p : # o + ; 9 ; + = - 0 r ",
"$ = X X - 0 w 9 $ + = w w $ # 7 7 # # $ = . ; w 9 + # ; w w ",
"$ + + + = ; 9 9 = # # $ $ - + O O O $ w ; # - 9 9 9 $ $ 9 9 ",
"+ = 9 ; @ + - + + $ ; $ + - ; X X # 0 w w $ + = 9 w ; + - - ",
"= ; 0 9 = + = X X ; w ; - 0 0 ; # # 6 w 0 # # $ - ; - = %   ",
"@ 9 w 0 9 ; + X X ; 0 9 ; 0 w $ # # ; w 9 = - $ = + $ ; + . ",
"X # ; 9 0 9 - + + + # + - ; 9 + X = - - ; w ; = + ; 0 0 ; + ",
". X = 9 r 0 ; - = . . X + - + % X $ - + ; w 9 # - $ w w 9 ; "
};
