/* XPM */
static char *_083d9086d1a4ea6f16374dc5e3a1af8FIpIWamjOVOTQ76r[] = {
/* columns rows colors chars-per-pixel */
"30 30 174 2 ",
"   c #B97C1C",
".  c #8E8C1E",
"X  c #998D19",
"o  c #8B941C",
"O  c #849C1C",
"+  c #889818",
"@  c #8C9C1D",
"#  c #92931C",
"$  c #919C1C",
"%  c #9B9B1F",
"&  c #AD8B15",
"*  c #B58A14",
"=  c #A29517",
"-  c #AD9D18",
";  c #8AA00E",
":  c #84A41C",
">  c #8CA51E",
",  c #86A91C",
"<  c #8BAC1E",
"1  c #90A517",
"2  c #99A71B",
"3  c #93A81E",
"4  c #8EB21E",
"5  c #91B51F",
"6  c #93B81F",
"7  c #98BC1F",
"8  c #AAA019",
"9  c #9D8623",
"0  c #958F21",
"q  c #9B8E22",
"w  c #8F9720",
"e  c #8F9A20",
"r  c #949522",
"t  c #929D21",
"y  c #9B9C21",
"u  c #9D9128",
"i  c #AA8524",
"p  c #AA8820",
"a  c #A38C2F",
"s  c #AE8F29",
"d  c #B08A28",
"f  c #BC882C",
"g  c #A39225",
"h  c #A49E24",
"j  c #AC9B26",
"k  c #AC952B",
"l  c #A49B2B",
"z  c #B5932B",
"x  c #B78331",
"c  c #B38D33",
"v  c #BC8B33",
"b  c #BC8A3B",
"n  c #A99235",
"m  c #B99436",
"M  c #BD923C",
"N  c #BC9A38",
"B  c #94A421",
"V  c #9DA322",
"C  c #96AC21",
"Z  c #9DA923",
"A  c #94B520",
"S  c #99B422",
"D  c #95BB20",
"F  c #99BE20",
"G  c #A9A426",
"H  c #A0A823",
"J  c #B0B12C",
"K  c #C18037",
"L  c #C4863A",
"P  c #C58B3C",
"I  c #C59536",
"U  c #9CC321",
"Y  c #A2CB23",
"T  c #A6D123",
"R  c #BD9544",
"E  c #B3B348",
"W  c #B9B351",
"Q  c #C68C40",
"!  c #CC8F42",
"~  c #C78C4A",
"^  c #CB8E49",
"/  c #D38948",
"(  c #C89140",
")  c #C49C44",
"_  c #C99A40",
"`  c #C8954B",
"'  c #CE9A4C",
"]  c #D1954E",
"[  c #DD8C53",
"{  c #DE8E5B",
"}  c #C69554",
"|  c #CE9252",
" . c #CF9859",
".. c #D49455",
"X. c #E18F55",
"o. c #E58F59",
"O. c #E39056",
"+. c #E9915F",
"@. c #E49B5C",
"#. c #CDA346",
"$. c #CFA55B",
"%. c #CF9B61",
"&. c #D69763",
"*. c #D49D65",
"=. c #D79968",
"-. c #D99C6C",
";. c #EF9467",
":. c #EF956C",
">. c #F4976D",
",. c #F59C6E",
"<. c #EF9C76",
"1. c #F59B74",
"2. c #D3A66D",
"3. c #D9A76C",
"4. c #DFA677",
"5. c #D5A976",
"6. c #DCA27A",
"7. c #DFAB7E",
"8. c #FDA277",
"9. c #FDA97C",
"0. c #DBB481",
"q. c #DEB986",
"w. c #DBB58A",
"e. c #DFBC8B",
"r. c #E5AC88",
"t. c #FBA586",
"y. c #FFA984",
"u. c #F7A78B",
"i. c #FAA789",
"p. c #FEA88B",
"a. c #E5B38C",
"s. c #ECAE92",
"d. c #F7AE94",
"f. c #FCAE95",
"g. c #E5B696",
"h. c #E9B697",
"j. c #E3BD99",
"k. c #E9BE9E",
"l. c #F7B29C",
"z. c #FEB39D",
"x. c #EEBDA3",
"c. c #FEB7A1",
"v. c #FDB9A5",
"b. c #FDBFAB",
"n. c #E3C49E",
"m. c #ECC3AB",
"M. c #F6C3AF",
"N. c #ECC6B0",
"B. c #ECCAB3",
"V. c #EFCBB9",
"C. c #FFC5B7",
"Z. c #FDC7B8",
"A. c #F3CCBA",
"S. c #FFC9BB",
"D. c #ECD3BB",
"F. c #FECEC1",
"G. c #F4D4C3",
"H. c #FDD4CA",
"J. c #F1DACB",
"K. c #FFD8CF",
"L. c #F4DDD0",
"P. c #FEDAD2",
"I. c #FEDFD8",
"U. c #F4E2D3",
"Y. c #F7E4DB",
"T. c #FCE3DC",
"R. c #FAE7E0",
"E. c #F7EBE2",
"W. c #FBEAE4",
"Q. c #FDEEEA",
"!. c #FBF1ED",
"~. c #FDF5F3",
"^. c #FEF8F6",
"/. c #FFFCFC",
/* pixels */
"T U 6 5 D 4 4 F Y A , U Y A 4 A A Y Y D A 4 A D U T T Y D 4 ",
"Y U 5 D U D 4 4 A 4 < A F A 4 4 < A F A < 4 < 4 U T Y U D D ",
"5 5 6 U U D : : > , > > , < < > O O , < < < : : D Y U D D D ",
"5 D F U D A < e e @ > > C > < > e e , < < A > , A U D 4 4 6 ",
"D U Y U 5 A D C t t w C S > > > B H A > C S C > , , D D < , ",
"5 D U 7 , B C y 0 q r B e o O o # y > t B Z V 2 C > A U 4 4 ",
"4 A 6 < @ e e 0 i d u 0 . . o . 9 9 o r w y h H B > F Y U D ",
"U F 4 : e r r z ( Q i x b b n n L P a 9 . s z j t > A U U 4 ",
"T U , : B g p ( #.N K / o.[ ` ] X.o.Q x i v P v g e > A D 4 ",
"U F 4 > V z f ..W E [ +.1.;.@.,.1.>.O.[ L ~ | ^ m V > A 4 < ",
"4 A 4 A G I ! -.V.A.:.1.d.8.,.9.p.i.>.<.{ -.6.-.' - > < < , ",
"D A 4 B j ^ =.h.T.T.u.i.Z.z.8.y.z.c.t.d.<.s.x.h.3.& > 4 4 < ",
"D D < e c &.k.G.~.Q.v.v.R.C.t.f.C.C.v.C.l.M.G.G.j.  r A D D ",
"A 4 , o c 4.L.E.~.~.F.C.~.H.f.b.K.K.S.I.Z.H.E.Y.B.Q u A U U ",
"5 4 : o M a.!.^.^.^.I.H.^.T.b.F.W.R.I.Q.P.E.~.~.J...u 5 U Y ",
"D 5 : % _ k.~././.^.Q.I./.Q.H.T.~.Q.W.~.Q.~./.^.U.&.l 3 4 5 ",
"U 6 , y ' B.~./././.~.!./.~.Q.~./.^.^./././././.E.7.l C < < ",
"Y U 5 l =.G.^././././.^././././././././././././.~.B.R C 4 5 ",
"U A l %.m.!././././././././.^./././././././././.^.Y.a.R X < ",
"< j  .g.L.^././././././././././././.^././././././.~.V.7.| k ",
", c { g.G.!./././././.^./.^.^.^.^./.^././././././.E.N.r.&.m ",
"< y R *.a.B.Y.!.^./././././././././././././.^.Q.J.m.7.*.#.J ",
"D < $ j ) $.0.n.D.U.E.W.E.W.Q.Q.Q.Q.E.Y.L.L.D.j.5.} R j 2 U ",
"D D , 4 , 2 8 * x ` 2.q.0.w.w.e.q.0.5.2.%.} M * = # , U U T ",
"D D 4 4 6 U U U < : : , 1 : + ; ; + > 5 4 : 4 U U U 6 6 U U ",
"4 4 D D 4 6 6 4 4 D 7 6 4 U 7 < < D U T U U 4 4 U T U 4 6 6 ",
"A U U U 6 4 6 < < U U U F U U 6 4 5 F T U 6 6 6 6 U 6 6 4 < ",
"6 U Y T U D 5 < , U U U U U Y F 6 4 7 Y U 6 6 6 6 4 D D 4 < ",
"< 4 U U U U 6 4 4 6 5 5 6 U U 4 4 6 6 6 U Y F 6 6 D U U U 6 ",
", < 6 U T Y U 6 6 , , < 4 6 6 , < 7 6 4 F T U 4 6 D T U U D "
};
