/* XPM */
static char *_8c248c4fcdf4c17818a08312ec0f003HJh2J4n2r5QiTLqK[] = {
/* columns rows colors chars-per-pixel */
"30 30 96 2 ",
"   c #010000",
".  c #0A0200",
"X  c #130000",
"o  c #190000",
"O  c #240100",
"+  c #370000",
"@  c #3D0000",
"#  c #322B00",
"$  c #3A2C00",
"%  c #3E3100",
"&  c #430000",
"*  c #4B0100",
"=  c #550000",
"-  c #5D0000",
";  c #630000",
":  c #6B0000",
">  c #730000",
",  c #7C0000",
"<  c #4C2001",
"1  c #522B02",
"2  c #423300",
"3  c #433800",
"4  c #513403",
"5  c #534003",
"6  c #5C4800",
"7  c #624D00",
"8  c #665000",
"9  c #655E07",
"0  c #73700F",
"q  c #787C11",
"w  c #820000",
"e  c #8C0000",
"r  c #920000",
"t  c #9D0000",
"y  c #A30000",
"u  c #AB0000",
"i  c #B10000",
"p  c #BF0000",
"a  c #975208",
"s  c #9A5809",
"d  c #836700",
"f  c #8B6E00",
"g  c #9B620B",
"h  c #956C0E",
"j  c #957500",
"k  c #9B7A00",
"l  c #7B8C15",
"z  c #7C9217",
"x  c #8C8F16",
"c  c #938514",
"v  c #9C8413",
"b  c #819416",
"n  c #839B18",
"m  c #939117",
"M  c #969F1A",
"N  c #9E9F19",
"B  c #B78F00",
"V  c #86AF16",
"C  c #86A01A",
"Z  c #8BA41B",
"A  c #86A91D",
"S  c #8AAD1D",
"D  c #94A31A",
"F  c #99A41A",
"G  c #93AC1D",
"H  c #99AE1D",
"J  c #8EB21E",
"K  c #91B51F",
"L  c #92B81F",
"P  c #93B91F",
"I  c #94B91E",
"U  c #94B91F",
"Y  c #98BA1F",
"T  c #A4A71A",
"R  c #93B720",
"E  c #93B820",
"W  c #94B920",
"Q  c #95BB20",
"!  c #97BE20",
"~  c #99BF21",
"^  c #C49900",
"/  c #CDA100",
"(  c #9AC31E",
")  c #99C021",
"_  c #9AC221",
"`  c #9BC221",
"'  c #9CC321",
"]  c #9DC622",
"[  c #9FC722",
"{  c #9FC822",
"}  c #A0C822",
"|  c #A3CD23",
" . c #A4CE23",
".. c #A5CF23",
"X. c #A5D023",
"o. c #A7D224",
/* pixels */
"o.} L J E L J ' ..K S ~ } K J L ' X.| ` R J L Q { X.o.| L J ",
"} ` L W ` W J S K & & & & & Z Z Q ` ` E L K J L ' o.{ { ) J ",
"L L L ' | ` z & * : ; ; ; ; & & n S S J E E J S ` o.' K Q ) ",
"K W ` [ } n * : ; , w w w , ; : * l K K Q ' L J Q ` E K J L ",
"R ~ } } l * : , e w y y u w e , : * b ` ' ..' L L K E E J A ",
"L ~ } ' = : , e t u p p p u t e , > = q W { } [ ) K ' ) J J ",
"J K K 0 ; w r y y i u u u i t y e , ; & R Q { | ` Q { X.' E ",
"' ~ K @ - : w w w e e t t t t w r r : * 9 K ` { Y E ' ] ) L ",
"| [ 9 - ; - - & & : : r t e y e : e w > & J L U L J E W R J ",
"` ` O @ + + + O o * - ; e , e e t , w , - 5 V L ' } Q W J S ",
"J J #     # 3 # 3   * ; ; ; : , e , : w - - 4 J { } Q J S A ",
"Q L % $ % 5 d B f 5 X & - - & : ; , - ; - ; - } ( Q W R J S ",
"Q E % 2 2 f ^ / j 7   @ & ; @ & - ; ; & - & ; < U J L U E R ",
"L J 2 2 % 8 k k 7 2   X @ & @ @ & - & @ & @ & - L U L L [ } ",
"J J % . 2 % 6 6 %       @ @ @ @ @ @ @ @ @ @ - - & U L L [ | ",
") L .     % % %       . @ @ @ & @ @ & @ - & ; - - S L U W W ",
"` ) @ X .         X   @ @ & @ - - & - ; - - w ; ; & ~ L L J ",
"| { & @ @ X o . o @ * @ @ - & & - - - - ; ; > w w ; D J W W ",
"| { 1 & & @ @ * @ & ; & & @ - ; - - ; - , w ; w , w w L E W ",
"Y ) J : - * * - & ; - - - * - - ; - - ; = , w , w , e x L J ",
"L L K , : - - : : - - : : - - : w : : w : , , , t e u y Q ~ ",
"J L W t , : : w , : : w w : : , , w , , w e , e t y a s } ..",
"E L J g e , w w , r , , , w w , w , e , , t e y t u L W } o.",
"W L S S t e , , e t r , w , , r , , t r e t t u u h K Y } X.",
"K L J G u t r r t t t r , , e t r r t t t t u v v [ W L ` [ ",
"L L Q W c t t t t t t t e t t t t t t u u u c R ` } ~ J L U ",
"E ` } } W u t u t t t t t t t u t t u T N m L K L ` W R J S ",
"E ' } } ~ D y x y t t t t y y F y y D } ' R R W L L W Q S S ",
"J J ` [ { ` G K Z y y t t H H J D D E W ` [ ` L L U [ } W L ",
"A S L ` X.{ Q L J Z C Z G W R S S ~ R J ` X.` J K ~ } ..[ W "
};
