/* XPM */
static char *_b19e5e05bee452dc1c3ef613748039bGP8z9DdGkENEbcwQ[] = {
/* columns rows colors chars-per-pixel */
"30 30 168 2 ",
"   c #7E921E",
".  c #7FA215",
"X  c #809D16",
"o  c #85951A",
"O  c #8A931E",
"+  c #859D1C",
"@  c #8C9D1C",
"#  c #979C1C",
"$  c #A69E13",
"%  c #A89F14",
"&  c #85A816",
"*  c #84A41B",
"=  c #8BA51E",
"-  c #86AA1B",
";  c #8BAD1D",
":  c #92A11D",
">  c #8BB417",
",  c #8EB912",
"<  c #8EB21E",
"1  c #8FB818",
"2  c #91B61F",
"3  c #93B91E",
"4  c #9A8B22",
"5  c #9A8A28",
"6  c #879A24",
"7  c #909E26",
"8  c #9C9D21",
"9  c #91972A",
"0  c #9B922C",
"q  c #A38922",
"w  c #AC8829",
"e  c #AC9B26",
"r  c #A69C2F",
"t  c #B59326",
"y  c #B09137",
"u  c #8FAA26",
"i  c #95AC24",
"p  c #98AE23",
"a  c #96A32E",
"s  c #95B624",
"d  c #95BB20",
"f  c #98BF21",
"g  c #9FB62A",
"h  c #9FB130",
"j  c #ABA32C",
"k  c #A5A538",
"l  c #ABA93F",
"z  c #A8B036",
"x  c #ABB13A",
"c  c #C08A34",
"v  c #C59437",
"b  c #C99136",
"n  c #97C21B",
"m  c #99C219",
"M  c #9FCA1F",
"N  c #A1CF1E",
"B  c #A2D01E",
"V  c #9CC421",
"C  c #9FC822",
"Z  c #9FC428",
"A  c #A2CC23",
"S  c #A8C62A",
"D  c #ABCC2C",
"F  c #A6D123",
"G  c #AFC534",
"H  c #B4C537",
"J  c #BE8F43",
"K  c #A79146",
"L  c #BB9E4E",
"P  c #AEA341",
"I  c #B5B543",
"U  c #B6B942",
"Y  c #BDA755",
"T  c #CD8D49",
"R  c #C3994D",
"E  c #C39E52",
"W  c #D39450",
"Q  c #D69A51",
"!  c #DB9A5B",
"~  c #E38D54",
"^  c #E19459",
"/  c #EB925B",
"(  c #E3995F",
")  c #C2AC4F",
"_  c #C3A652",
"`  c #D2A95C",
"'  c #C4B250",
"]  c #CCBC53",
"[  c #C6B058",
"{  c #C9B758",
"}  c #CBBA5A",
"|  c #DB9B63",
" . c #E59763",
".. c #EE9663",
"X. c #E09961",
"o. c #EB9C66",
"O. c #E09768",
"+. c #EA9568",
"@. c #ED9A6E",
"#. c #F19866",
"$. c #F4976B",
"%. c #F3996B",
"&. c #F8986C",
"*. c #E49D74",
"=. c #EE9C76",
"-. c #F79E75",
";. c #FA9D74",
":. c #F69F7B",
">. c #FA9E78",
",. c #CFAE60",
"<. c #D3A564",
"1. c #D3AA60",
"2. c #DAA76D",
"3. c #DFAE6B",
"4. c #D1B162",
"5. c #DABA64",
"6. c #DCB76E",
"7. c #DDBC6C",
"8. c #DBA275",
"9. c #DEB472",
"0. c #E4A86D",
"q. c #EAA96B",
"w. c #E9AA74",
"e. c #E1A07C",
"r. c #F5A570",
"t. c #FAA277",
"y. c #FDA17C",
"u. c #E4B272",
"i. c #E2BD74",
"p. c #E8BD75",
"a. c #EBB67A",
"s. c #E6BD79",
"d. c #B5D040",
"f. c #C4C24B",
"g. c #C6CE53",
"h. c #CBCA57",
"j. c #D6C05D",
"k. c #DFC56C",
"l. c #E1C46B",
"z. c #E4C475",
"x. c #E6CF72",
"c. c #EBCA75",
"v. c #E7C07A",
"b. c #E9C67B",
"n. c #EAC878",
"m. c #EECD7D",
"M. c #EFA587",
"N. c #FCA482",
"B. c #F0AD81",
"V. c #F9AD85",
"C. c #F7A789",
"Z. c #FBA78B",
"A. c #FCA98D",
"S. c #E8B182",
"D. c #EEB288",
"F. c #FCAD93",
"G. c #FDAF99",
"H. c #E5B494",
"J. c #F2B399",
"K. c #FCB49E",
"L. c #EDBDA3",
"P. c #FCBAA6",
"I. c #FDBBAA",
"U. c #F2D385",
"Y. c #F6C3B1",
"T. c #F3CAB6",
"R. c #F3D4C5",
"E. c #F5D8CB",
/* pixels */
"F C 2 < d < < C A V 2 C A d < d C A A d 3 < d d C A F A d < ",
"A V s d V 3 < d C d 2 V C d 2 d d C V d s d < d C F A V d 2 ",
"2 s 2 n A V - ; s 3 d 3 2 d d 2 < - < < 3 d < - V F V < d d ",
"< d f A C V s 2 2 2 d d d d d 2 3 < 2 2 3 V < < d V f < 2 2 ",
"d V A A d V A C d < d C A 3 < d V C V 3 V A V s 2 2 d 2 < - ",
"2 d C V 2 f A f < < 2 n 1 < & < 1 3 3 2 3 f C C d 2 V V < < ",
"< 2 d d 2 2 3 ; - < d <   . - - & . * - 2 2 f A V d C A V d ",
"C d 2 < < 2 < 2 d > - h x x x z k k a * & = 3 C d d V C d s ",
"A C ; ; d 2 ; < f < i K L ] ] ] ' ) P 6 . + ; d s < d 3 2 2 ",
"V 3 s 3 A s ; & - i I Y 4.l.k.z.7.5._ l 7 o X < 3 C d s ; - ",
"< ; d A f p ; + 6 P } x.m.z.m.U.s.2.` _ k 5 O 2 n A f < ; ; ",
"2 ; 3 3 3 = O 0 P [ l.c.z.b.U.b.u.w.3.1.E T r C 3 f d d < - ",
"3 s < 2 u @ 4 y R 4.n.m.s.v.U.6.u.a.u.0.! / v 3 1 ; d d d s ",
"3 2 ; ; * q c v R ,.z.m.s.u.m.p.a.D.S.O.! =.W @ - d s d V A ",
"2 < * ; @ t Q ( e.` 6.9.w.q.i.0.t.V.B.@./ J.O.q * = < 2 V A ",
"s 2 ; 3 p b H.*.~ ! o...&.;.r.y.y.N.y.&.>.R.T.<.# K ; 3 2 3 ",
"3 3 ; ; e | R.L.@.#.>.>.Z.N.y.y.N.N.y.;.C.Y.E.Y.$ 9 2 ; ; 2 ",
"A f i + q 8.R.L.M.%.F.G.I.P.K.P.J.F.N.;.y.+.| H.% p ; ; ; 2 ",
"m d 2 = O w 8.|  .o.A.A.P.F.N.F.G.N.;.$.:.^ y w : i ; - ; 2 ",
"f s ; ; ; ; = 8 j v X.o.;.$.#.-.-.%.( W J 5 = u * * < s s 2 ",
"3 2 2 d V s - m N S x j.5.{ } z.i.5.{ U g 1 > < - < < d d f ",
"2 2 d C A A 3 C F B D f.] D d.x.c.k.U s 1 d s < 3 d s 3 C A ",
"s 2 2 3 V A A V V n n G H m Z g.h.U g 3 > < d V d d s d A F ",
"3 2 - - s V A C 3 s 2 C N 3 3 A M 2 < d < - V A V < 3 d C F ",
"3 2 < 2 s 3 C V 2 < s 3 3 3 3 , , 1 3 N V < d V C V d d V C ",
"2 2 d d < 2 3 2 < d 3 3 < d d - ; 3 C A A 3 < < V A d < d d ",
"d d A C d 2 s ; - V A V d C C d 2 2 f A C < 2 d d V d s < - ",
"3 V A C V 3 2 - u n C V d C A V 2 3 3 A V s d d < < d d < - ",
"- s 3 C A C d 2 < < < s 3 V d < ; 3 d d f A 3 3 d d C C d 3 ",
"- - 2 C A A d 3 < - - < < 3 d - ; d d < f A V s < d A F V d "
};
