/* XPM */
static char *_2114ac69f104083b73af015da50aaa8D8EsKlrnVdN9rrA2[] = {
/* columns rows colors chars-per-pixel */
"30 30 98 2 ",
"   c #010201",
".  c #060B03",
"X  c #0A0F00",
"o  c #020409",
"O  c #0C1202",
"+  c #0C130B",
"@  c #0F190C",
"#  c #101701",
"$  c #141B01",
"%  c #030716",
"&  c #040A15",
"*  c #050D1B",
"=  c #0C1618",
"-  c #1B2402",
";  c #1F2902",
":  c #232E03",
">  c #253103",
",  c #293604",
"<  c #2C3A04",
"1  c #303E05",
"2  c #050F21",
"3  c #071125",
"4  c #081327",
"5  c #07122A",
"6  c #081329",
"7  c #071430",
"8  c #091635",
"9  c #091738",
"0  c #09183B",
"q  c #344305",
"w  c #374806",
"e  c #3B4B07",
"r  c #3D4D0C",
"t  c #435609",
"y  c #465A0B",
"u  c #495D0A",
"i  c #4D620C",
"p  c #50650C",
"a  c #556C0E",
"s  c #59710F",
"d  c #506611",
"f  c #536A11",
"g  c #5C7510",
"h  c #5F7810",
"j  c #627C12",
"k  c #0A1E4D",
"l  c #0A1F50",
"z  c #0A2053",
"x  c #0E296B",
"c  c #10307B",
"v  c #678113",
"b  c #698414",
"n  c #6E8A15",
"m  c #718E16",
"M  c #749216",
"N  c #799917",
"B  c #769418",
"V  c #7D9D19",
"C  c #7FA01A",
"Z  c #83A51B",
"A  c #86A91C",
"S  c #8AAD1D",
"D  c #8DB11E",
"F  c #8FB21F",
"G  c #8FB31F",
"H  c #8FB41E",
"J  c #90B31F",
"K  c #90B51F",
"L  c #91B71F",
"P  c #93B71E",
"I  c #92B71F",
"U  c #92B81F",
"Y  c #93B91F",
"T  c #94BA1F",
"R  c #92B720",
"E  c #94B920",
"W  c #94BA20",
"Q  c #96BC20",
"!  c #98BE20",
"~  c #98C020",
"^  c #9BC220",
"/  c #9BC221",
"(  c #9BC321",
")  c #9CC321",
"_  c #9FC722",
"`  c #9FC822",
"'  c #A0C822",
"]  c #A3CC23",
"[  c #A4CE23",
"{  c #A5D023",
"}  c #A7D224",
"|  c #123486",
" . c #13368B",
".. c #12368C",
"X. c #133995",
"o. c #143A98",
"O. c #153DA1",
"+. c #153FA5",
/* pixels */
"} ' U G U I I ' [ ! J _ ' Q I I / } ` / R H R Q ` ] } ] Q H ",
"' / I E ) U S Y ' U A I V S S M Z E S Z S E H E ` { { ( Q E ",
"I I U ) ] / A A A M M n j b a i j j a j Z H C C ~ } ~ E E Q ",
"G E / _ ' / I A b s g r q e : - # - > w u M C n H / E G H H ",
"E / ] ' I J I N t , $   .       . .   # $ u j n G A H L D A ",
"I Q ' ! Z A N e $ O   % 5 4 5 6 5 5 6 & O O q j N H D / U D ",
"J R I I A V w O   % 5 7 0 9 9 9 9 0 0 5 3 %   # g M Q E Q E ",
") ! A V V i $   % 6 9 9 9 9 9 9 9 9 9 9 0 5 &   $ e Z S Q E ",
"{ ~ G N i -   * 8 9 9 9 9 9 9 9 9 9 7 9 9 9 7 %   $ g R A R ",
"/ G Z s u X & 7 9 9 9 9 9 9 9 9 9 9 9 9 9 9 0 5 &   : b V Z ",
"G I V a $   6 0 9 9 9 9 9 9 9 9 9 9 9 9 9 9 9 9 5   $ t V V ",
"I I M q   * 5 9 9 9 9 9 9 9 9 9 9 9 9 9 9 9 9 9 5 *   y b A ",
"U S j q + 6 9 8 7 0 9 7 9 9 9 9 9 9 9 9 9 9 9 9 9 5   w M V ",
"I M h $   6 9 * k | x + 8 9 9 9 9 9 9 9 9 9 9 9 9 2 . : b N ",
"J Z u < o 6 9 l ..+.X.x 8 9 9 9 9 9 9 9 9 9 9 9 9 5   : j G ",
"I A u <   3 9 c +.X.O.X.k 9 9 9 9 9 9 9 9 9 9 9 9 5 o : m R ",
") N i $ o 6 6 z  .O.o.x 9 9 9 9 9 9 9 9 9 9 9 9 5 3 o $ j N ",
"] I j 1   4 2 = k | x & 8 9 9 9 9 9 9 9 9 9 9 9 3 3   - j N ",
"' I n y o % 5 7 7 k 9 7 9 9 9 9 9 9 9 9 9 9 0 7 3 =   < Z Z ",
"! G n p   . 5 2 8 9 9 9 9 9 9 9 9 9 9 9 9 0 8 * 6 . - a V V ",
"I I C h q . * 3 * 8 0 9 9 9 9 9 9 9 9 9 9 5 * 4 % O w j S I ",
"G G H V j :   * 3 3 5 7 0 9 0 9 0 9 0 7 6 3 4 *   > s N / ] ",
"U H A G M y ;   % 4 * 2 5 5 5 5 5 5 5 3 * 3 &   . u n H ' { ",
"Y I A S G j r -   % 6 3 2 2 2 2 2 2 * 3 6 =   $ r n N Y ` { ",
"Y I J G S S N r ; . o % 3 2 2 5 3 2 3 * + O $ f m Z I I / _ ",
"I I Y U S I S b a : :   + @ @ o o o o   - t i M S ) T J U U ",
"E ! ' ' E I G Z N j j y 1 , > < < w < t d a m A A E Y E G S ",
"U / [ ' / E G V B S A m n v v s s s m N n m G J J P E ! G A ",
"S I Q ` ' _ E H G S V M A R E V M Z Z V Z Y T E I E ' ' E U ",
"A S U ) { ' Q E R S A A R E R A A U I J T { _ Y I ! ' [ _ Q "
};
