/* XPM */
static char *_636f41509e74d8f822d9a11a98f4ad0dNu1V62Ca64txIZs[] = {
/* columns rows colors chars-per-pixel */
"30 30 154 2 ",
"   c #7F9B1A",
".  c #918D1E",
"X  c #8D9617",
"o  c #8B9D12",
"O  c #889519",
"+  c #829C1B",
"@  c #8A9D1F",
"#  c #939712",
"$  c #929B15",
"%  c #9F9B13",
"&  c #94961F",
"*  c #919A1C",
"=  c #A29B19",
"-  c #82A31A",
";  c #8AA41C",
":  c #86A91C",
">  c #8AAC1D",
",  c #9CA517",
"<  c #94AC15",
"1  c #92A31C",
"2  c #98A718",
"3  c #91AD1D",
"4  c #9BAD1D",
"5  c #8EB912",
"6  c #8EB21E",
"7  c #8FB818",
"8  c #91B51F",
"9  c #94B91E",
"0  c #8C9025",
"q  c #909621",
"w  c #959A21",
"e  c #9F9920",
"r  c #9C912F",
"t  c #9F9F37",
"y  c #AD8426",
"u  c #A78E22",
"i  c #AB8C2D",
"p  c #B38F2D",
"a  c #A19225",
"s  c #AD9621",
"d  c #A69228",
"f  c #A39929",
"g  c #B09026",
"h  c #B29629",
"j  c #B08530",
"k  c #B58C3B",
"l  c #BD8B39",
"z  c #A39435",
"x  c #BA9636",
"c  c #B4943C",
"v  c #BD943E",
"b  c #94A020",
"n  c #98A523",
"m  c #92AE20",
"M  c #98AD21",
"N  c #97A52D",
"B  c #93B520",
"V  c #95BB20",
"C  c #98BE20",
"Z  c #ABA425",
"A  c #ACA729",
"S  c #A1A336",
"D  c #B2A131",
"F  c #C78C39",
"G  c #9FCA1F",
"H  c #9CC321",
"J  c #9FC822",
"K  c #A2CC23",
"L  c #A6D124",
"P  c #BE8A41",
"I  c #ACA240",
"U  c #BEA34C",
"Y  c #C98D43",
"T  c #C48A49",
"R  c #CC894D",
"E  c #C59348",
"W  c #CA954B",
"Q  c #C29D4C",
"!  c #DB924D",
"~  c #CD8E50",
"^  c #D18D55",
"/  c #DE8E59",
"(  c #DE9150",
")  c #D3945C",
"_  c #D59C5B",
"`  c #C2A14B",
"'  c #C1AD4E",
"]  c #C2A353",
"[  c #CEA95D",
"{  c #D4A35E",
"}  c #D49561",
"|  c #D09C66",
" . c #DA9D6A",
".. c #E3976A",
"X. c #EC9469",
"o. c #F09A65",
"O. c #F4976B",
"+. c #F59A73",
"@. c #FD9E72",
"#. c #F29E78",
"$. c #DDA665",
"%. c #DBA867",
"&. c #DDA969",
"*. c #D3B161",
"=. c #DDA172",
"-. c #ECA36A",
";. c #FFA16F",
":. c #E3AB7C",
">. c #F6A277",
",. c #FCA074",
"<. c #FDA17C",
"1. c #E1AB88",
"2. c #EBA98B",
"3. c #FDA685",
"4. c #FEAB8D",
"5. c #E8B58E",
"6. c #F7AD94",
"7. c #FBAC92",
"8. c #E6B796",
"9. c #E9BB9D",
"0. c #FEB29A",
"q. c #EBBDA4",
"w. c #FDB6A2",
"e. c #FEBAA7",
"r. c #F6BDAA",
"t. c #FEBDAB",
"y. c #EBC3AD",
"u. c #FEC1AF",
"i. c #EDC6B0",
"p. c #EECDB9",
"a. c #F5C5B2",
"s. c #FEC5B6",
"d. c #F6CEBD",
"f. c #FECABD",
"g. c #F9CFC1",
"h. c #F3D3C3",
"j. c #FDD0C5",
"k. c #FDD4CA",
"l. c #F5DCCD",
"z. c #F9D8CC",
"x. c #F6DFD3",
"c. c #FCDDD4",
"v. c #F6E0D5",
"b. c #F6E4DB",
"n. c #FCE4DC",
"m. c #FFE6E1",
"M. c #FDEBE6",
"N. c #FEEEEA",
"B. c #FDF2EF",
"V. c #FEF5F2",
"C. c #FFF9F7",
"Z. c #FFFDFC",
"A. c #FDFFFE",
"S. c #FEFFFE",
/* pixels */
"L J 8 6 V 6 6 H L V B J K V 6 V G K K C 8 8 9 H J K L K V 6 ",
"K H 8 V H V 6 V J V 6 H J V 8 9 9 G C V 8 8 6 6 H L K J V 8 ",
"8 B 9 H K V : > V V V 9 8 V V 6 > > > 8 V V > > H L H 6 V V ",
"8 V C J J H 6 > 6 6 B V V V 8 > 8 > ; > V H > > V H V 8 8 8 ",
"V H K K V C J V 8 > 8 G K 9 6 > 9 G 9 8 V K V m 8 8 V 9 > : ",
"8 V J H 8 8 V m > > 6 9 9 7 - - : 3 ; ; m C B B V 8 H H V 6 ",
"6 8 V V 6 > 3 @ + ; > > :           + q ; ; n C B > J K H V ",
"J V 8 6 6 > @ w 1 - + N t S t z t t r . O w f n 6 > H J V 8 ",
"K K > > 8 ; 0 h Z * 0 I ` ' U W ` Q v j . q Y z 6 6 8 V 8 6 ",
"H V 8 V 9 8 a F p i v ] *.[ { o.$. .! / F y ~ i B V V 6 6 > ",
"8 8 V H J M p  .R F ( _ &.%.-.,.>.#.X.3...^ 1.l M H H 6 > : ",
"V 8 9 V 8 1 P h.2.X.O.O.-.-.@.4.@.+.3.s.r.2.c._ , 6 V 8 6 > ",
"V V > 8 > # } S.g.6.7.<.@.;.<.u.3.3.w.n.g.a.S.:.= : 8 9 V V ",
"8 8 > : - = :.S.N.k.f.t.4.<.4.v.0.e.c.Z.m.x.S.q.u > 8 8 H K ",
"8 6 > > : = 5.S.S.M.m.c.s.0.e.C.s.g.Z.S.V.M.S.h.k m 6 8 H K ",
"9 8 > 8 9 s 9.S.S.V.B.V.v.u.f.S.k.M.S.S.Z.S.S.b.E > > 9 V 9 ",
"H V 8 9 B g y.S.S.C.C.Z.V.n.m.S.N.C.S.S.S.Z.S.N._ > > 8 8 8 ",
"K K 9 > X ) x.S.S.S.Z.Z.Z.Z.Z.S.Z.Z.Z.Z.S.S.S.Z.q.A 8 ; 8 V ",
"K V > @ T i.B.S.S.Z.C.S.Z.C.C.C.C.C.C.Z.Z.S.S.Z.b.=.x q ; 8 ",
"9 m q a =.p.M.S.S.S.C.C.C.C.C.Z.C.C.C.C.C.Z.S.S.b.9.) e q : ",
"8 > ; w x  .9.l.V.C.S.S.S.S.S.S.Z.S.S.C.S.S.V.x.9.) i 1 > 8 ",
"6 B 9 V H 4 d v $.9.y.d.z.h.x.n.k.d.a.q.8.1.| k r 1 > > H L ",
"V 8 8 9 H V K G V < 2 A D % f U Q c f $ o ; > J V 6 6 V K L ",
"V V > > B H K H V 6 8 J K V 8 G G 8 8 8 8 > V K H 8 8 H J L ",
"9 8 6 6 8 V J H 8 8 8 8 G 6 6 5 5 5 9 J H 6 V H H H V V H J ",
"6 B J V 8 8 V 8 8 V V 8 6 H V > > 9 J K J H 6 8 H J V 8 7 V ",
"8 H J H V 8 8 6 > H K H V H H 8 6 8 J K H 8 6 V V H V 8 6 > ",
"8 H K J V 9 8 > : H J H V J L H 9 8 8 K H V V V 8 8 V V > > ",
"> 8 H H J H 8 6 6 6 8 8 8 H H 6 6 9 V V J J H B 8 V H J H 6 ",
": > 6 J L J G 8 6 > : > 8 9 8 : > 9 9 6 V K J 6 6 H L J H V "
};
