/* XPM */
static char *f4a1aa1d64ed4b12e1ee508a7f1362b64PMMC6qbfZcx06nn[] = {
/* columns rows colors chars-per-pixel */
"30 30 107 2 ",
"   c #010100",
".  c #170000",
"X  c #161000",
"o  c #240000",
"O  c #2D0100",
"+  c #320200",
"@  c #3C0000",
"#  c #201700",
"$  c #261F00",
"%  c #2C2200",
"&  c #312500",
"*  c #3C2F00",
"=  c #3E3100",
"-  c #450000",
";  c #4D0000",
":  c #430F00",
">  c #520000",
",  c #5C0000",
"<  c #630000",
"1  c #6B0100",
"2  c #740000",
"3  c #7C0000",
"4  c #4A2402",
"5  c #4E2902",
"6  c #413300",
"7  c #4C3C01",
"8  c #503E02",
"9  c #743A04",
"0  c #534200",
"q  c #594600",
"w  c #604C00",
"e  c #754B07",
"r  c #675100",
"t  c #6F5700",
"y  c #6B5509",
"u  c #665809",
"i  c #685C0A",
"p  c #705800",
"a  c #6A640C",
"s  c #7F6400",
"d  c #706E0E",
"f  c #777C11",
"g  c #840000",
"h  c #8B0000",
"j  c #8A0B00",
"k  c #950000",
"l  c #9C0100",
"z  c #9C1C01",
"x  c #A20000",
"c  c #AC0000",
"v  c #B50000",
"b  c #BB0000",
"n  c #9B2C03",
"m  c #9D3003",
"M  c #C10000",
"N  c #994E07",
"B  c #8B6D00",
"V  c #96650D",
"C  c #9B6C0E",
"Z  c #927300",
"A  c #9C7B00",
"S  c #967410",
"D  c #768213",
"F  c #7B8213",
"G  c #7F8D16",
"H  c #858914",
"J  c #958313",
"K  c #938D16",
"L  c #869618",
"P  c #939317",
"I  c #949718",
"U  c #939B18",
"Y  c #9B9D19",
"T  c #B89100",
"R  c #A39015",
"E  c #A29917",
"W  c #88A61C",
"Q  c #86A91D",
"!  c #8BAD1D",
"~  c #94A31B",
"^  c #9BA31A",
"/  c #92AC1D",
"(  c #8EB21E",
")  c #91B51F",
"_  c #93B81F",
"`  c #98BB1F",
"'  c #9EBD1F",
"]  c #93B720",
"[  c #93B820",
"{  c #94B920",
"}  c #95BB20",
"|  c #97BD21",
" . c #98BE20",
".. c #C29800",
"X. c #CA9E00",
"o. c #99C021",
"O. c #9BC221",
"+. c #9BC321",
"@. c #9CC321",
"#. c #9CC422",
"$. c #9FC722",
"%. c #9FC822",
"&. c #A0C521",
"*. c #A0C822",
"=. c #A3CC23",
"-. c #A5D023",
";. c #A7D224",
/* pixels */
";.*._ ( [ _ ( $.=.O.( $.=.! W ! ) =.*._ _ ( _ | %.=.;.=.{ ( ",
"*.O._ { O.[ ( | $.| _ ) F ; - - ; F ) ` _ _ ( _ $.-.=.$.| ) ",
"_ _ _ O.=.O.Q ! ( { F ; > 1 < < 1 > - D ] _ ( ! +.-.O.( | { ",
"( [ O.$.%.O.` ( _ D ; 1 1 g g h g 1 2 > D $.( ! [ $.| ( ) ) ",
"{ O.=.*. .$.*.$.D ; 2 g h k c v k h g 2 ; G O._ _ ( [ _ ( Q ",
"_ | $.@._ | *.f > 2 3 h x b M M b x h 3 2 > F $.[ _ | $.) ( ",
"( [ { { ( ( ` 4 , 3 k x l k k k k l x k 3 , 5 ;._ ` %.=.O.{ ",
"O. .) ( ( _ a ; 2 k h h g , < < , g h h k 1 > d O._ O.$. .) ",
";.$.! ! [ [ 0 2 g g < , - ; - - - - < < g g 2 8 ] ! { { ] ( ",
"O.| ) _ %.a > 3 1 , @                 @ , 1 3 > a $._ ] ( ! ",
"( ( _ O.F @ 2 1 > : w r q %     % 0 r w : , 1 2 @ F O.Q ! Q ",
"] ] ] | i , , < @ q A X.Z q 6 6 q Z X.A q @ , , , u | [ ! ! ",
"| ] ) y > 1 < , . 7 B T T p = * t T ..B 0 . , < 1 > y  .{ [ ",
") ( G 2 1 2 1 -   % 0 B p 6 * * 6 p s 0 %   - 1 2 1 2 L &.*.",
"_ W e 2 g 1 ; - O   % 8 7 6 X X = 7 0 %   O - ; 1 g 2 e ` =.",
"[ Q 2 g 3 3 ; - - O   % & X     # % $   O - - ; 3 3 g 3 Q { ",
"| 9 2 1 g h < , , - O o             o + - , , < k g 1 2 9 ! ",
"' 2 1 3 x g , , , @ , > + + + + + O > , @ , , , g x 3 1 1 / ",
"%.P g x k 1 1 3 < , < , > - , , ; > , , , < 3 1 < k x g H ] ",
"| / c k 3 3 3 g < , < 3 2 , < , , 2 3 < , < g 3 3 3 k c ~ ) ",
"_ U x j k 2 k h 3 < 3 g g 2 , , 2 g g 3 < 3 h k 3 k j x Y O.",
"( I N E x k x l g 3 g l 3 3 g 3 3 2 l g 3 g l l h x I N ^ *.",
"[ [ ( S v x x x g g l l g g 3 3 g g l l g g x x l v S | *.;.",
"{ _ Q K n c m z h l l l x k h g l x l l l k z m c z I ` %.-.",
"_ _ ! ) V x $.n c l l l l l x l l l l l l c n +.l C | [ O.$.",
"( _ { ` J I | J l l c c l l l l l l c c x x S _ ^ E | ( _ ` ",
"{  .*.@.{ ] / ( J x K C c l l l l c C R x K ) ) { | [ [ ( ! ",
"{ O.=.*. .] _ Q ! Y =.O.C v x x v V | %.Y [ ) [ _ [ { | ( Q ",
"! _ | $.*.$.` ( ! ) ) ) ] Y ~ U I _ [ _ O.$.` _ _ { *.*.| _ ",
"Q ! _ O.-.%.| _ _ Q W ! _ [ [ Q ( _ _ ( | =.$._ _  .*.*.$.{ "
};
