/* XPM */
static char *_557d889fa624be694d5806f213aeb67RH2DA3m4ABRklTr9[] = {
/* columns rows colors chars-per-pixel */
"30 30 52 1 ",
"  c #010100",
". c #060A00",
"X c #090E00",
"o c #0C1301",
"O c #101701",
"+ c #121A01",
"@ c #172001",
"# c #1B2402",
"$ c #232F03",
"% c #263303",
"& c #293603",
"* c #2D3B04",
"= c #303F05",
"- c #060F23",
"; c #091738",
": c #354406",
"> c #3B4B07",
", c #3D4E08",
"< c #3E5008",
"1 c #405207",
"2 c #435509",
"3 c #445809",
"4 c #495E0B",
"5 c #4C610B",
"6 c #51660C",
"7 c #566D0E",
"8 c #586F0E",
"9 c #5A720F",
"0 c #5D7510",
"q c #5F7810",
"w c #627C12",
"e c #668213",
"r c #698514",
"t c #6D8A15",
"y c #708E16",
"u c #749217",
"i c #769518",
"p c #789718",
"a c #7C9C19",
"s c #7FA01A",
"d c #82A41B",
"f c #86A91C",
"g c #8AAD1D",
"h c #8EB21E",
"j c #91B61F",
"k c #93B91F",
"l c #95BB20",
"z c #98BF20",
"x c #9BC321",
"c c #9FC822",
"v c #A2CC23",
"b c #A6D124",
/* pixels */
"bcjhljjxvxjvvljjxbvzlhlzxvbvlh",
"vxjlzlglvjajhjijdffhafglxbvclj",
"jjjxvlfauaywr8y09qrtgjfgxvxjll",
"jlzvvxda04:=,OO+:*<56efflxlhjj",
"lzvchxgi7:  .O o O  >57gjhjlgf",
"llvxfar= . --------  O&wupxxjh",
"hllfd8&  --;;;;;;;;-- o%5dfvxl",
"xzfw62.o-;;;;;;;;;;;;-  *0sxhj",
"vfpw2 X-;;;;;;;;;;;;;;-X :wlgh",
"khw:@.-;;;;;;;;;;;;;;;;- .7ufg",
"jp5: -;;;;;;;;;;;;;;;;;;- %4ii",
"lw5  -;;;;;;;;;;;;;;;;;;- X,wg",
"du* -;;;;;;;;;;;;;;;;;;;;-X4tg",
"ar: -;;;;;;;;;;;;;;;;;;;;- *wl",
"frO.-;;;;;;;;;;;;;;;;;;;;-.*0x",
"d0: -;;;;;;;;;;;;;;;;;;;;- $7a",
"py, -;;;;;;;;;;;;;;;;;;;;-o&rf",
"gi1 --;;;;;;;;;;;;;;;;;;-- :ya",
"dt4 --;;;;;;;;;;;;;;;;;;--X*0d",
"hd1  --;;;;;;;;;;;;;;;;--  7yh",
"ky4*X---;;;;;;;;;;;;;;--- +tdf",
"hjq6  ---;;;;;;;;;;;;--- O:0fv",
"lpyq4  ----;;;;;;;;----  3rdcv",
"zhfar: X--------------  #5dfvv",
"ljhsaw:  ------------  *rtalzc",
"hjkldar= X --------   ,7ffzgll",
"lzcxhfrt3# o  . o  o=:8idllhhg",
"lzvvxldttr>:**=&*,21tedglhlzhf",
"gjzxcxgpfdww0rt057qyglglglxczj",
"fflxbcllluaahdfitlaugxxhlzvvxl"
};
