/* XPM */
static char *f2d3bce76c6e421ccae62011aee87e870xlcuytWBnOwM3dC[] = {
/* columns rows colors chars-per-pixel */
"30 30 155 2 ",
"   c #7F9B1B",
".  c #949B0C",
"X  c #839A17",
"o  c #89901A",
"O  c #839B1D",
"+  c #8B9E1D",
"@  c #969516",
"#  c #959B13",
"$  c #96971C",
"%  c #939B1B",
"&  c #A6921B",
"*  c #81A417",
"=  c #84A31C",
"-  c #8CA41D",
";  c #86A91B",
":  c #8BAD1D",
">  c #98A116",
",  c #91A31D",
"<  c #93AB1D",
"1  c #9DAB1A",
"2  c #8EB21E",
"3  c #91B51F",
"4  c #93B91F",
"5  c #9E8721",
"6  c #9F8C23",
"7  c #8E9325",
"8  c #889F24",
"9  c #949521",
"0  c #9C9723",
"q  c #949D22",
"w  c #949C2D",
"e  c #9F9C32",
"r  c #A88627",
"t  c #A68F26",
"y  c #A68B2A",
"u  c #B68E2C",
"i  c #A19323",
"p  c #AA9127",
"a  c #A59A24",
"s  c #A99629",
"d  c #AD982B",
"f  c #B59E23",
"g  c #BC8234",
"h  c #B38A31",
"j  c #BD8B34",
"k  c #BE883D",
"l  c #A19A35",
"z  c #AA973D",
"x  c #BD9432",
"c  c #B1933C",
"v  c #BF9A39",
"b  c #8BA420",
"n  c #92A420",
"m  c #9BA422",
"M  c #9BAD2F",
"N  c #8DB320",
"B  c #94B320",
"V  c #9AB722",
"C  c #95BB20",
"Z  c #98BE21",
"A  c #A5A222",
"S  c #A1A135",
"D  c #A9A33E",
"F  c #C58C3A",
"G  c #C69433",
"H  c #9CC321",
"J  c #9FC822",
"K  c #A0C723",
"L  c #A2CC23",
"P  c #A6D123",
"I  c #AE9B40",
"U  c #BF9F4B",
"Y  c #AEA842",
"T  c #C48C42",
"R  c #CB8C42",
"E  c #C08F48",
"W  c #CE8E49",
"Q  c #D88949",
"!  c #C59B4D",
"~  c #D4974A",
"^  c #CB8E51",
"/  c #CB9752",
"(  c #CC9950",
")  c #D59453",
"_  c #DB955B",
"`  c #D89A59",
"'  c #E08F5C",
"]  c #E9905F",
"[  c #C1A54C",
"{  c #C4A751",
"}  c #C3AB56",
"|  c #D4A35D",
" . c #D89B62",
".. c #DA9D6B",
"X. c #E89562",
"o. c #EE9A64",
"O. c #EF9F69",
"+. c #F39F68",
"@. c #FB9C6D",
"#. c #FB9D73",
"$. c #F49E7C",
"%. c #DCA666",
"&. c #D3AC62",
"*. c #DEA16B",
"=. c #D8AE68",
"-. c #DEA576",
";. c #DDA47C",
":. c #DEA87E",
">. c #ECA065",
",. c #E7A669",
"<. c #F5A26C",
"1. c #EAAE74",
"2. c #F6A074",
"3. c #F2A871",
"4. c #FEA27B",
"5. c #EFA381",
"6. c #E2AC84",
"7. c #E4AC8A",
"8. c #F1A383",
"9. c #FDA685",
"0. c #FDAA8D",
"q. c #FEAD93",
"w. c #E8B692",
"e. c #E8B995",
"r. c #E9B99B",
"t. c #FDB39B",
"y. c #EABFA7",
"u. c #F6B9A4",
"i. c #FDBDAC",
"p. c #EBC1A8",
"a. c #EEC7B1",
"s. c #EEC9B3",
"d. c #EECDBB",
"f. c #FEC4B4",
"g. c #FEC7B8",
"h. c #F1CFB9",
"j. c #FECABC",
"k. c #F2D1BA",
"l. c #F2D4C3",
"z. c #F3D4C7",
"x. c #FED1C5",
"c. c #F5D7CA",
"v. c #FCD5CA",
"b. c #F5DDCE",
"n. c #F5DED2",
"m. c #FCDCD4",
"M. c #FFDFD9",
"N. c #F6E0D4",
"B. c #FDE4DD",
"V. c #F7EAE2",
"C. c #FCEFE9",
"Z. c #FCF1EE",
"A. c #FEF5F3",
"S. c #FEF8F6",
"D. c #FEFDFC",
/* pixels */
"P K 4 2 C B 2 H P H 2 J P C N 4 H P L Z 4 2 3 Z J L P P H 2 ",
"K H 3 C H C 2 C J C 3 H H C N 4 Z H H 4 4 4 3 3 J L J J C 3 ",
"3 4 4 H L C = : B C C 3 2 C C 3 2 ; : 3 4 4 2 : H P H 3 C C ",
"2 B H J K H : : 2 4 C C 3 4 3 2 3 3 3 2 4 Z 3 : 4 H C 2 2 3 ",
"C H K J Z 4 V Z 4 2 4 J H 3 : 2 4 L H 3 H K Z 3 2 2 4 4 2 : ",
"3 C J H 3 C B : 2 3 4 4 3 ; * ; 2 4 4 2 3 4 V Z 3 2 Z H 2 2 ",
"2 C C C 3 : n + * 3 3 :         = * O - - : B V 4 3 J L H C ",
"J C 2 : 2 - 9 q 3 ; * M l l l e S S w X X 8 n 3 2 2 Z J C C ",
"P J : - 3 - y a 4 : b Y [ ! U U [ [ I 7 o 9 q q - : C C N N ",
"H C 2 3 C m F u % $ D } | ` | %.=.| ! c y 5 5 9 n B C N 2 : ",
"2 3 B C Z A  .^ r z { &.%.o.O.3.1.,.X.Q R g g t m V C 2 : ; ",
"C 3 3 N B p p.7.Q ( | %.+.#.#.@.<.2.@.X.] ' _ G a b 4 B : N ",
"C C 2 = , E Z.z.8.X.>.+.#.0.4.2.#.4.q.#.5.2.7.~ u 9 3 C C C ",
"3 3 b   @ -.D.Z.m.$.#.2.0.q.9.9.9.q.j.q.u.u.c.6.j q 2 3 H L ",
"B N ;   & r.D.D.D.u.0.q.f.g.t.t.t.i.C.i.v.v.D.s.R 0 N 3 H J ",
"C N N b f s.D.D.D.v.f.i.B.B.j.j.x.f.D.m.A.C.D.N. .6 2 3 C C ",
"H C 3 , x l.D.D.D.C.B.x.A.A.v.x.i.x.D.D.D.A.D.C.6.p 3 3 3 2 ",
"L J 4 + k n.D.D.D.A.C.M.D.D.M.m.v.B.D.D.D.D.D.A.e.d 4 2 C C ",
"L J N + / B.D.D.D.D.D.A.D.D.A.A.Z.S.D.D.D.D.D.D.a.x < N 4 C ",
"C N - h r.S.D.D.D.D.D.D.D.D.D.D.D.D.D.D.D.D.D.D.B.:.t N : 2 ",
"- 9 T 6.n.D.D.D.D.D.S.S.D.D.S.D.D.D.S.D.D.D.D.D.Z.d...j q N ",
"8 i ) w.d.C.D.D.D.S.D.S.S.S.S.D.S.D.S.S.D.D.D.D.V.p.6.W a C ",
": - t T *.w.z.Z.A.A.D.D.D.D.D.D.D.D.D.D.D.A.N.b.r...T a B K ",
"C 3 : = % d v ( :.y.r.s.h.l.h.k.d.s.p.e.7.;./ v s $ : 4 K L ",
"4 B 2 : 2 C H 3 - % # > > $ $ # . # > 1 < - < H H Z 3 3 H H ",
"2 4 C C N 4 C 4 3 4 C 4 3 C C : ; C H J J C 2 3 J L H 2 4 C ",
"C H J J C 2 2 2 : H L H 4 J J C 3 N H P J 3 N C C C 4 3 2 : ",
"2 H L J H C B : : C J H Z K K H 4 B C J H B C C 4 2 H 4 2 ; ",
": 2 H H J H C 3 2 2 N C C C C 2 2 4 C C H H H 2 3 C J J C 4 ",
"; 2 3 H P J C 4 2 : ; : N C 4 : : C C 2 H P H 2 2 H J P H C "
};
