/* XPM */
static char *d35f14c010a34e6c82660bb1036f72f7guNCZ0FaG5ifvnY1[] = {
/* columns rows colors chars-per-pixel */
"30 30 162 2 ",
"   c #8D951E",
".  c #829A1C",
"X  c #8C9F1F",
"o  c #939B13",
"O  c #A59B1D",
"+  c #83AB16",
"@  c #88AD17",
"#  c #85A61B",
"$  c #8AA41E",
"%  c #86AA1B",
"&  c #8AAD1D",
"*  c #92A61E",
"=  c #95AB19",
"-  c #89B217",
";  c #8EB912",
":  c #8EB21E",
">  c #8FB918",
",  c #91B61F",
"<  c #93B91E",
"1  c #A3B017",
"2  c #A2B31C",
"3  c #9A8C23",
"4  c #959322",
"5  c #9E9623",
"6  c #939D21",
"7  c #A28E25",
"8  c #AB8E28",
"9  c #B28B2B",
"0  c #BA8D2F",
"q  c #A29725",
"w  c #A69E23",
"e  c #AB9429",
"r  c #B4902A",
"t  c #B59929",
"y  c #BF8934",
"u  c #A29E36",
"i  c #B89B37",
"p  c #89A224",
"a  c #8EAA26",
"s  c #90A020",
"d  c #9CA523",
"f  c #94AC24",
"g  c #97A62E",
"h  c #93B620",
"j  c #95BB20",
"k  c #98BE20",
"l  c #9EB529",
"z  c #9EAF31",
"x  c #9FB130",
"c  c #A9A020",
"v  c #ACA920",
"b  c #A7AE35",
"n  c #ABA83D",
"m  c #B3A138",
"M  c #BDA03F",
"N  c #ACB23A",
"B  c #C18538",
"V  c #C88C38",
"C  c #C39134",
"Z  c #99C114",
"A  c #96C11C",
"S  c #9AC31E",
"D  c #9FCA1F",
"F  c #9CC421",
"G  c #9FC822",
"H  c #9FC428",
"J  c #A2CC23",
"K  c #A6D123",
"L  c #AFC534",
"P  c #B4C537",
"I  c #ACA340",
"U  c #B7A948",
"Y  c #B5B542",
"T  c #BAB747",
"R  c #CA8B42",
"E  c #CE8D4C",
"W  c #DC8F4E",
"Q  c #CA9647",
"!  c #C69B48",
"~  c #D19844",
"^  c #D3994E",
"/  c #CD8F56",
"(  c #D39452",
")  c #D89451",
"_  c #D79B57",
"`  c #D49A5D",
"'  c #DB9C5C",
"]  c #C4AC53",
"[  c #D1A35D",
"{  c #DBA25E",
"}  c #CCBC53",
"|  c #CAB75A",
" . c #CFBC5B",
".. c #D1BF56",
"X. c #D2BD5A",
"o. c #D99B63",
"O. c #E69360",
"+. c #EE9A67",
"@. c #F39F6F",
"#. c #EB9B72",
"$. c #DCAB6A",
"%. c #D3B464",
"&. c #DAB470",
"*. c #DDB970",
"=. c #E8A969",
"-. c #EAB36E",
";. c #E0A073",
":. c #EFAD70",
">. c #EEA07C",
",. c #E4B773",
"<. c #C6CE53",
"1. c #CBCA57",
"2. c #D3C05F",
"3. c #DFC16C",
"4. c #E2C66D",
"5. c #E5C86D",
"6. c #E4C474",
"7. c #E7C57B",
"8. c #E8C77C",
"9. c #ECCC7C",
"0. c #F1CF7C",
"q. c #E1AD89",
"w. c #EAAB8B",
"e. c #FEA98B",
"r. c #EBB489",
"t. c #F0BF8E",
"y. c #FDAE94",
"u. c #E6B595",
"i. c #EABA97",
"p. c #F3B49A",
"a. c #FAB9A6",
"s. c #FCBEAC",
"d. c #E6C480",
"f. c #EDCC83",
"g. c #E7CA89",
"h. c #F2D183",
"j. c #F9D887",
"k. c #F9D789",
"l. c #E4C894",
"z. c #EDC2AB",
"x. c #F7C1AE",
"c. c #FAC0AF",
"v. c #EEC9B6",
"b. c #FAC3B2",
"n. c #F8C8B7",
"m. c #FFCFC3",
"M. c #F3D4C3",
"N. c #FDD1C5",
"B. c #F7D5CA",
"V. c #FCD6CB",
"C. c #FED8CF",
"Z. c #F7DCD2",
"A. c #FDDDD5",
"S. c #F8E3D7",
"D. c #FDE3DC",
"F. c #FEE7E1",
"G. c #FDEAE4",
"H. c #FDEDE8",
"J. c #FCF1ED",
"K. c #FCF4F2",
"L. c #FDF8F5",
"P. c #FEFEFD",
/* pixels */
"K G , : h h : G K F : G K j : h F K J F : : , F G K K G j : ",
"J F < h F h : j G j h F F j < h < F F h j : , , F K G G j , ",
", , h F J k % & h j j < : j j , : : & h h : : % F K F , j j ",
", h F G J G h : : h j j F j j h h : h < F F j : j F j : , , ",
"h F J J < G J G F , : G G j : j F J G h k J F h , , h , : % ",
", j G G , k G F : : j A A - & - < A A < k J J F j , F G , : ",
": , j h , < j , % : j : + & % % % % & h h j J J F j G G F j ",
"G j , : , , h h F > : x N N N b b N z @ - h k J F : F G j , ",
"K G : & j h h F G > a T 2.1.} } 1...T f % , < h , , h < , , ",
"F j : j G F h > > l N 3.5.3.4.4.9.4.X.N f + + , F G j , & & ",
": : j G J G < @ a Y  .5.9.0.9.f.k.8.3. .n p # , G J F : & % ",
"h h < < F < # g Y | 3.6.0.j.h.7.h.8.6.3.] I z j S j < < : a ",
"j j : h h @ . u ] %.*.6.9.h.h.,.8.f.d.6.[ ! m h < : < j h h ",
"h : & % : % w i U [ $.,.7.7.7.,.g.l.r.&.' W R   > < h h F J ",
": : & & h = ^ ) ~ O.+.@.:.-.-.=.d.t.r.=.#.>.w.3 - h : h G J ",
"h h : : G O v.s.#.a.a.a.y.y.e.y.e.e.e.e.b.B.J.! : % h j < < ",
"F h $ 6 c ` K.J.B.G.D.A.V.V.m.N.N.V.N.N.H.L.P.i.t q X a & , ",
"k h q y R u.P.K.D.G.D.A.D.D.D.A.A.A.V.V.D.J.P.M._ ~ 0 4 $ , ",
"j d r R / q.L.L.D.H.G.D.G.G.F.D.D.D.D.A.C.G.P.z.o.( V 7 X & ",
"h s 4 9 V / u.M.S.J.H.Z.D.G.D.D.D.G.D.Z.Z.M.z.o.E B 8 6 $ $ ",
"h : % * d e 9 C { r.p.p.c.n.x.c.c.c.p.w.;.R 0 9 q   $ : h F ",
": h h F J F $ f 2 1 v ! Q t M { =.( i 5 o * s # : h : h F K ",
"h h , h F G G G G A A L P Z H <.1.N l , - : j F j < : j G K ",
"F h % & < G J G j : , G K < : G D < , j : % F J F : h F G K ",
": h : : : F F F , : h A A h : ; ; > < D F : h F F F j h F F ",
": < F j , h h , : j F : : j j : & < J J J j : h F J F : h j ",
": F G F h , : : a k G F h G G h , , k K G , < h j j h , : % ",
"h F J G F h h % % F G k F G G F , , < J G h h h , : j F : % ",
": : F F G F < : : : : , h F F : & < h h G J k , , j G G j : ",
"% : : F K G F h : % % : : j h % & j h , k J F , : F G K F F "
};
