/* XPM */
static char *b8fc54a548c34873ceab3cf915084615jIggnmYBYvFtL5dN[] = {
/* columns rows colors chars-per-pixel */
"30 30 109 2 ",
"   c #010202",
".  c #060A01",
"X  c #090F00",
"o  c #020408",
"O  c #060D0F",
"+  c #090F09",
"@  c #061000",
"#  c #0D1402",
"$  c #0C1807",
"%  c #0B1109",
"&  c #101701",
"*  c #111901",
"=  c #030714",
"-  c #040A15",
";  c #060E1E",
":  c #0B1416",
">  c #0B1418",
",  c #121C16",
"<  c #121C18",
"1  c #172001",
"2  c #1B2402",
"3  c #1F2902",
"4  c #222D03",
"5  c #263203",
"6  c #2A3604",
"7  c #2D3A04",
"8  c #303E05",
"9  c #050F22",
"0  c #061125",
"q  c #081327",
"w  c #07122B",
"e  c #08142A",
"r  c #071431",
"t  c #091635",
"y  c #091738",
"u  c #09183B",
"i  c #344305",
"p  c #3C4D07",
"a  c #3E5008",
"s  c #425408",
"d  c #465909",
"f  c #485C0A",
"g  c #4E630C",
"h  c #51670D",
"j  c #546B0E",
"k  c #586E0E",
"l  c #5A720F",
"z  c #4E6410",
"x  c #516711",
"c  c #556B12",
"v  c #5D7611",
"b  c #637D12",
"n  c #0A1C42",
"m  c #0A1E4B",
"M  c #0B2154",
"N  c #0B2258",
"B  c #0D2765",
"V  c #0E2A6C",
"C  c #11317D",
"Z  c #668113",
"A  c #6A8514",
"S  c #6E8B15",
"D  c #718E16",
"F  c #759317",
"G  c #789618",
"H  c #7B9A19",
"J  c #7FA01A",
"K  c #82A41B",
"L  c #86A91C",
"P  c #8AAC1D",
"I  c #8EB21E",
"U  c #91B61F",
"Y  c #92B81F",
"T  c #93B91F",
"R  c #96BC1F",
"E  c #92B720",
"W  c #93B820",
"Q  c #95BA20",
"!  c #96BC20",
"~  c #96BD20",
"^  c #97BD20",
"/  c #98BF21",
"(  c #99BF21",
")  c #9AC121",
"_  c #9BC221",
"`  c #9BC322",
"'  c #9CC321",
"]  c #9CC421",
"[  c #9FC722",
"{  c #9FC822",
"}  c #A0C822",
"|  c #A1CA23",
" . c #A2CC22",
".. c #A3CC23",
"X. c #A5CF23",
"o. c #A5D023",
"O. c #A7D224",
"+. c #123385",
"@. c #12358B",
"#. c #12368B",
"$. c #133790",
"%. c #133893",
"&. c #133894",
"*. c #143A98",
"=. c #143B99",
"-. c #153DA1",
";. c #153EA3",
":. c #153EA4",
">. c #153FA5",
/* pixels */
"O.} Y I Y Y Y [ X.( W [ { Q I Y _ X.} R Y I W _ [ X.O...^ I ",
"} _ Y Q _ R P Y ^ R Y P K G G H K L P P I Y I W _ O.{ [ ^ I ",
"Y Y Y ' } ( L L L A D k b b f g v b Z H H I L K _ O._ E ^ ^ ",
"U W _ [ [ I I A b s i i 2 4 4 3 2 4 i v S L L L Y _ ^ I I Y ",
"W ( ..[ R R L l 5 X     .             2 p k G P I I Y Y I L ",
"U Q } P L G l 7   . > w e e e e 0 e -   . i d G L K R ` Y I ",
"U U W P H p 4   < e w u y y y y y u r e -   * h J I I { _ W ",
"' Y K G k 3   = r u y y y y y y y y u u w ,   X d G L I ^ W ",
"} K D g *   = e y y y y y y y y y y y r y t :   2 h K H I W ",
"' L b p . - r y y y y y y y y y y y y y y y r - # a b K I P ",
"P D h . . e u y y y y y y y y y y y y y y y u e @ . a L K L ",
"K b 6   = w y y y y y y y y y y y y u u y y y e -   7 F H P ",
"K Z 4   e u y y u r u u y y y y u u u r u u u u e   5 b P W ",
"E f 5   0 y u y w n y r u y y y u r y n w t u t e o i k F } ",
"L v #   0 u y - M @.V : e u t y r O V @.M - u u 0 . i j H ..",
"K b 4   e u r M $.:.=.V y u y u y V =.;.%.M r u e o 4 b K W ",
"I b 5 $ 0 e u C ;.&.;.%.m t u y n &.;.%.:.+.u w 0 . 2 A L I ",
"[ H 7 o 0 0 u m @.;.*.B r u y u r B &.:.@.m u e q o i A H Q ",
"} F j   - 0 w ; m +.B = r y y u y O B +.m ; w 0 -   d A L Q ",
"^ A v 4   q 0 r r u y t u y y y u r y u r r 9 0 %   c L L U ",
"P L l p   - 0 9 t y y y t y u u t u u u r 9 0 -   5 b K P ( ",
"P L S j 2 . - 0 9 w r u u u u u u u r 0 0 0 =   5 Z D H [ ..",
"Y L K Z k 5   - 0 9 9 w 0 0 0 0 9 w 0 ; 0 : X * c H K U { o.",
"R I K S G f &   - 0 9 9 9 9 9 0 9 9 9 e =   . x D F L _ } o.",
"R Y P I P S v *     - e 0 0 0 e 0 0 - o # 1 x A K R Y U _ [ ",
"I Y ^ Q L L Z v 5 *     o   o   + +     p j D L ( } ( U R Q ",
"W _ } [ I I L F A z d s 7 i 2 4 5 6 7 v A Z L W Q Q W Y I P ",
"Y _ } { _ Q I K K S F b b l b A b j Z H L H L Y U U Q ^ I L ",
"P Y ^ { } [ Q P L U K D L ^ K D G L K K R } ( Y Y Q [ } ^ Y ",
"L P Y _ o.{ ^ Y E L L L E Q W L P ^ Q I ( X.' U U ( } .._ Q "
};
