/* XPM */
static char *_190e25befeb4988b218fbdac992ca5fsgJ8fyxQkkyIDLme[] = {
/* columns rows colors chars-per-pixel */
"30 30 156 2 ",
"   c #7F9B1A",
".  c #918D1D",
"X  c #8B931D",
"o  c #829C1B",
"O  c #8B9D1E",
"+  c #94901F",
"@  c #98961F",
"#  c #939E1D",
"$  c #9A9A1E",
"%  c #A88E0F",
"&  c #A19813",
"*  c #A0911F",
"=  c #81A417",
"-  c #86A41D",
";  c #8BA51E",
":  c #86A91C",
">  c #8BAD1D",
",  c #95A41F",
"<  c #91AB1D",
"1  c #8AB417",
"2  c #8EB912",
"3  c #8EB21E",
"4  c #8FB818",
"5  c #91B61F",
"6  c #9FB518",
"7  c #94B91F",
"8  c #9FB91E",
"9  c #A5AA1A",
"0  c #928C27",
"q  c #9A8A28",
"w  c #8E9B20",
"e  c #979423",
"r  c #9B9223",
"t  c #9D9921",
"y  c #96962E",
"u  c #9F9A32",
"i  c #A78524",
"p  c #A98F27",
"a  c #AE8628",
"s  c #A78B2B",
"d  c #B28E2A",
"f  c #BD8D2D",
"g  c #A09D24",
"h  c #AB932A",
"j  c #B9972B",
"k  c #B68C35",
"l  c #BB8C35",
"z  c #BD8D3D",
"x  c #A19B35",
"c  c #BA9031",
"v  c #B59B34",
"b  c #8FA020",
"n  c #94A120",
"m  c #9CA723",
"M  c #92AB21",
"N  c #94B621",
"B  c #95BB20",
"V  c #98BF20",
"C  c #A8AD27",
"Z  c #AEA428",
"A  c #B5AA38",
"S  c #C7843E",
"D  c #C48B3D",
"F  c #99C114",
"G  c #97C31A",
"H  c #99C21E",
"J  c #9FCA1F",
"K  c #9CC321",
"L  c #9FC822",
"P  c #9FC428",
"I  c #A0C722",
"U  c #A2CB23",
"Y  c #A6D123",
"T  c #B4C537",
"R  c #B39540",
"E  c #BFA241",
"W  c #B5BA41",
"Q  c #CC8641",
"!  c #C58B42",
"~  c #CC8D42",
"^  c #C69246",
"/  c #C89445",
"(  c #C69E43",
")  c #C8924D",
"_  c #C29D4A",
"`  c #CE9F4D",
"'  c #D09641",
"]  c #D3934C",
"[  c #D18E59",
"{  c #CE9453",
"}  c #D29352",
"|  c #D5965E",
" . c #DB9B5B",
".. c #E78F53",
"X. c #E9965F",
"o. c #C1A24C",
"O. c #D89A67",
"+. c #E69360",
"@. c #E99E66",
"#. c #F29866",
"$. c #F59866",
"%. c #F59A6A",
"&. c #E69C75",
"*. c #E79F78",
"=. c #F79B70",
"-. c #FE9E75",
";. c #D4A16E",
":. c #DCA16A",
">. c #E2A263",
",. c #E8A477",
"<. c #E0AB77",
"1. c #E0A77E",
"2. c #FDA171",
"3. c #FEA179",
"4. c #C6CE53",
"5. c #CBCA57",
"6. c #DFA780",
"7. c #E5AD84",
"8. c #FBA586",
"9. c #F8A78C",
"0. c #FEAB8D",
"q. c #FFAD91",
"w. c #E6B595",
"e. c #E8B194",
"r. c #E4B699",
"t. c #EDB299",
"y. c #EBBB99",
"u. c #FFB096",
"i. c #FCB29A",
"p. c #EABDA1",
"a. c #FFBFB0",
"s. c #EDC0AA",
"d. c #EECAB3",
"f. c #F6C5B1",
"g. c #FDC2B3",
"h. c #FCC7B9",
"j. c #F3CEBF",
"k. c #FDCBBC",
"l. c #FECEC2",
"z. c #F0D6C7",
"x. c #FED1C5",
"c. c #FBD5CB",
"v. c #F4DACB",
"b. c #FBD9CF",
"n. c #FEDAD0",
"m. c #F7E0D4",
"M. c #FDE3DD",
"N. c #FAE5DD",
"B. c #FCE4DC",
"V. c #FEEAE6",
"C. c #FCEFEB",
"Z. c #FDF1ED",
"A. c #FEF6F4",
"S. c #FDF9F5",
"D. c #FFFAF9",
"F. c #FFFCFC",
/* pixels */
"Y I 7 3 N N 3 K Y K 3 L Y B 5 N K Y U 8 3 5 5 K L Y Y L B 3 ",
"I K N B K B 3 B L B 5 K K B 3 7 7 H K 7 B 5 5 4 K Y L L B 3 ",
"3 7 7 K U K : > N 7 B 7 3 N B 3 > > > > 5 B 3 > K Y K 5 7 H ",
"3 N K K K K N 5 3 5 7 N K N 7 5 5 3 3 > 3 K 3 > B K B 5 5 5 ",
"B K U L 7 K K V 5 > > K L 7 : 3 7 H H 5 7 I V 7 5 5 5 B > M ",
"N B L K 5 7 V N : : 3 3 4 :   : > > 5 < < B K V 5 3 K L 5 > ",
"3 5 B B > 3 > -   b M b =       o o o o w < 7 K K 5 L L K 7 ",
"K K 3 3 > ; O n n o o m u u x u x x y X X w M N 5 5 K L H 5 ",
"Y K > M > ; r g Z e 0 R E R o._ _ _ R q i e w , M 3 B 5 5 5 ",
"K B 5 N N M l d f l z { ;. .X.>.>. .} ! Q i . w M K B 5 3 > ",
"5 5 B K N 9 ;.{ [ ....+.@.@.%.2.-.%.#.+.*.S a r M K K 3 : : ",
"5 5 N B M & d.e.t.,.=.=.$.3.3.3.-.-.8.9.c.&.] j M 3 B 5 5 > ",
"B B 5 3 w % v.j.B.g.8.8.3.u.q.0.u.0.g.k.D.f.,.' $ > N B B B ",
"5 5 M : O f N.N.S.b.i.i.0.k.g.i.k.a.V.n.F.N.s.O.@ 3 3 N K L ",
"7 3     # / C.Z.F.V.g.h.h.V.b.x.M.c.Z.F.F.A.Z.w.* > 3 5 K U ",
"7 3 3 7 9 :.S.F.F.A.M.V.Z.F.A.A.A.A.D.F.F.S.F.v.^ ; 3 B 7 N ",
"K H ; t ` d.D.F.F.F.D.D.D.F.F.D.D.D.F.F.F.F.F.A.y.c t ; N 3 ",
"P M c } r.N.F.F.F.F.A.A.F.F.D.D.D.A.D.F.F.F.F.F.v.7.{ l e 5 ",
"K g ~ O.r.z.F.F.F.D.S.D.D.F.F.F.D.D.D.F.F.F.F.C.d.w.:.~ p M ",
"B M q D | 1.s.m.S.F.A.S.F.F.F.F.D.F.F.F.F.S.m.p.6.| ! h O > ",
"7 7 5 < m h k / <.y.f.k.k.b.v.x.l.h.h.f.7.O.) k s + ; B B K ",
"5 3 N K U L 7 7 8 6 C o.( C A :.:.` v t ; < > > N B 3 3 K Y ",
"N 3 3 7 K I K K K G G T T F P 4.5.W V N 1 3 7 K B 5 3 B L Y ",
"K N > 3 7 L U I 7 5 5 J J 7 B L J 3 3 B N : 8 Y K 5 5 K L Y ",
"3 3 3 3 3 K K K 7 5 5 7 G 5 5 2 2 4 7 J K 3 B K K K B N K K ",
"3 7 K K 3 N B 3 3 B B 7 5 B B : > 7 H Y L K 3 3 L U K 3 7 B ",
"5 K K K N 3 3 3 > B U K B K K 5 5 5 K Y L 3 3 N B K B 5 3 > ",
"7 K U L K B 5 3 : K L K K L L K 5 5 7 I K N B B 3 5 B B 3 : ",
": 5 K K L K 3 3 3 3 5 5 5 K K 5 3 7 B B K K K 3 5 B L L K 3 ",
": 3 5 K Y L K N 3 > : 3 5 N 5 : > B N 3 K Y K 3 3 K L U K B "
};
