/* XPM */
static char *e9ae639cb7964d3a9dfa9056d4d57009i5ISEuB3NgAz84OK[] = {
/* columns rows colors chars-per-pixel */
"30 30 95 2 ",
"   c #360000",
".  c #3A0000",
"X  c #440000",
"o  c #4B0000",
"O  c #470D00",
"+  c #540000",
"@  c #5C0000",
"#  c #4E1D01",
"$  c #630000",
"%  c #6B0000",
"&  c #730000",
"*  c #7B0000",
"=  c #4D2702",
"-  c #542F03",
";  c #503203",
":  c #5A3E05",
">  c #5F4305",
",  c #5D5208",
"<  c #5F5909",
"1  c #6A4606",
"2  c #634E07",
"3  c #754906",
"4  c #794F07",
"5  c #695C0A",
"6  c #735108",
"7  c #785309",
"8  c #6C670C",
"9  c #696D0E",
"0  c #747810",
"q  c #820000",
"w  c #8C0000",
"e  c #930000",
"r  c #9C0000",
"t  c #9C0E00",
"y  c #9B1601",
"u  c #991901",
"i  c #A20000",
"p  c #AA0000",
"a  c #B30000",
"s  c #BB0000",
"d  c #992402",
"f  c #9C3B04",
"g  c #964406",
"h  c #9C4C07",
"j  c #975409",
"k  c #995C0A",
"l  c #956A0E",
"z  c #9E690C",
"x  c #9C730F",
"c  c #807D12",
"v  c #987611",
"b  c #947810",
"n  c #987F12",
"m  c #798A14",
"M  c #7D9417",
"N  c #8C8414",
"B  c #938614",
"V  c #9B8D15",
"C  c #929919",
"Z  c #A19C18",
"A  c #87A51C",
"S  c #86A91D",
"D  c #8BAD1D",
"F  c #95A61B",
"G  c #94A81C",
"H  c #8DB01E",
"J  c #8FB31F",
"K  c #90B31F",
"L  c #93B31E",
"P  c #97B31E",
"I  c #91B71F",
"U  c #92B71F",
"Y  c #92B81F",
"T  c #93B91F",
"R  c #95B81F",
"E  c #9BBA1F",
"W  c #9EB81F",
"Q  c #92B720",
"!  c #93B820",
"~  c #94B920",
"^  c #97BD20",
"/  c #98BE20",
"(  c #99C021",
")  c #9BC221",
"_  c #9CC321",
"`  c #9DC622",
"'  c #9FC722",
"]  c #9FC822",
"[  c #A1C621",
"{  c #A0C822",
"}  c #A3CB22",
"|  c #A3CC23",
" . c #A4CF23",
".. c #A5D023",
"X. c #A7D224",
/* pixels */
"X.{ Y J ! U U '  ./ D [ O X . X # ..' ) U J Y ^ ] ..X.| ^ J ",
"{ ) U ~ ) ~ D ~ ' ^ = X $ $ $ $ @ X ; Y U U J U ' | | ' ! U ",
"U U Y _  .) S D Q = $ $ * * q q * $ $ ; Q ! J D ' ..( J ! ^ ",
"K ! ) ' { ) Y U - @ * q q i i r * q * @ : ) U D ! _ ^ J Y Y ",
"~ ) | { ^ ) | : @ * q e i s s s i e q * @ 2 ' Y J Y Y Y J S ",
"U ^ ' _ J / 8 + * q r i s s s s s i r q * + 0 ' Y J ) ) Y D ",
"J Q ~ R J K 2 @ * r r a a s s s a a r e * + 5 ] ] Y { | ) ! ",
"_ / U D U 9 @ * e r r r e a a a e r r r e * @ m Y Y ' ' ^ ! ",
".._ D J K , % * & w e r i r r r r r e w & q % 5 J J ~ ~ U J ",
") ^ J Y m @ q % $ q & e e e e e e e * * $ % * + M ' R Q D D ",
"J J ! ' , % q % @ % q & * * * * * & q % @ % q % < | ^ D D S ",
"U U Y > @ & $ + @ + & @ % q q q % $ % + @ + $ & @ 2 ^ Q J D ",
"R J 1 @ % +   o X o + $ @ & & % @ $ @ X X o . @ % + 6 R ~ Q ",
"U A & & + o + X . . @ + @ @ @ @ @ + @   . X + o + & % U ' { ",
"D 3 % & $ @ @ o o   o o o + + + o o X . o o @ + $ & % 7 /  .",
"! & q & & @ + @ o X o @ +       + @ + X + + + @ * & q % ~ ~ ",
"4 & % w q + % % + @ $ $ $ + . @ $ @ $ @ + % % o q w % & 7 K ",
"& % & r w + q % @ $ + @ @ @ + @ @ @ @ @ @ & q + w r % % & R ",
"N & r i w & q % % $ & @ @ $ @ $ @ $ & % $ % q * e i r & c ~ ",
"E i r w r * q & q $ & * @ @ $ + @ * & $ q * * * e w r r U K ",
"G i e e * w w * q * * q * & @ * * q & * q & w w * e e r K / ",
"C e B i * r r q * * e q * * * q * q e * * w r r * i B r W  .",
"Y F C p r r i w & w i q * * * * * q i w & e r r r i F F [ X.",
"Y U N a r i i w w r r e r q * q e r r r w w i i i a C _ {  .",
"R K K b s k x p r r r i r r e r r r r i r p v h s V ~ U ) ' ",
"Y U Y n y K k a r r r r r i r r r r r r r a l U t Z / K Y Y ",
"~ / { ' K U U g p r i r r r r r r r i r p j U ~ P R ~ Q J D ",
"~ _ { ' _ ~ K D d v { y i r r r i u / z f ~ Q ~ U U ~ ^ J S ",
"D U Y {  .' ! Y K K U U t i r i u R ! ~ ) ' / U U ~ ' { ^ U ",
"S D Y _  .' R Y K D S D U ~ Y S J / U J _  .) J U / {  .) ^ "
};
