/* XPM */
static char *_4a1ce57c6c34385d5d239b923de31d3Hv1HP4D931Tvn59H[] = {
/* columns rows colors chars-per-pixel */
"30 30 101 2 ",
"   c #010202",
".  c #060A02",
"X  c #090E00",
"o  c #020408",
"O  c #060B09",
"+  c #080E08",
"@  c #061004",
"#  c #0D1402",
"$  c #0B110A",
"%  c #101701",
"&  c #121902",
"*  c #030716",
"=  c #040A15",
"-  c #060E1D",
";  c #071017",
":  c #0C1516",
">  c #0E1814",
",  c #101917",
"<  c #131D19",
"1  c #172001",
"2  c #1A2402",
"3  c #1E2802",
"4  c #222D03",
"5  c #273303",
"6  c #293503",
"7  c #2E3C04",
"8  c #303F05",
"9  c #050F21",
"0  c #061125",
"q  c #081325",
"w  c #07122A",
"e  c #081329",
"r  c #071430",
"t  c #091635",
"y  c #091738",
"u  c #09183A",
"i  c #344305",
"p  c #3C4C07",
"a  c #3F5108",
"s  c #425409",
"d  c #46590A",
"f  c #495E0C",
"g  c #4E630C",
"h  c #50660D",
"j  c #546B0D",
"k  c #5A720F",
"l  c #4E6311",
"z  c #5C7411",
"x  c #5F7811",
"c  c #627C11",
"v  c #0A1B40",
"b  c #0B1E4C",
"n  c #0A1F51",
"m  c #0A2053",
"M  c #0E296B",
"N  c #10307B",
"B  c #678113",
"V  c #6A8614",
"C  c #6E8B15",
"Z  c #718E16",
"A  c #759317",
"S  c #779518",
"D  c #799718",
"F  c #7C9C19",
"G  c #7FA01A",
"H  c #82A41B",
"J  c #86A91C",
"K  c #8AAD1D",
"L  c #8EB21E",
"P  c #90B41F",
"I  c #91B61E",
"U  c #92B71F",
"Y  c #92B81F",
"T  c #94B91F",
"R  c #92B720",
"E  c #93B820",
"W  c #93B920",
"Q  c #95BA20",
"!  c #97BD20",
"~  c #99BF21",
"^  c #99C021",
"/  c #9BC221",
"(  c #9BC321",
")  c #9CC321",
"_  c #9CC421",
"`  c #9FC722",
"'  c #9FC822",
"]  c #A0C822",
"[  c #A0C922",
"{  c #A2CB22",
"}  c #A3CD23",
"|  c #A4CE23",
" . c #A5D023",
".. c #A7D224",
"X. c #123486",
"o. c #123589",
"O. c #13368D",
"+. c #133995",
"@. c #143A99",
"#. c #153DA1",
"$. c #153EA3",
/* pixels */
"..] Y L Y Y U ` | T U ] | T U T / } ] T T Y Y T ] |  .| Q L ",
"] / U Q / Y L U ] U F L T H F J H U L F K U L Y '  .} ' W U ",
"U U Y ) | / H F L H C C c g g x z d V H H H H J / } / U W ! ",
"L Q / ` ] L H J V d s s 4 2 6 4 2 5 8 s k U K F Y ` Q L U Y ",
"Q / ` / ~ U A c s 2     & .   o       @ 8 x Z A G L Y T L J ",
"R Q ` L L F d #     * w w w e 0 q e <     4 c H J J Y / Y L ",
"U L Q J c h #   * w w u y y y y u u w e *   & j A D ` } ) Q ",
"/ K D A z X   > w u y y y y y y u u u u w =   . s c U ` T W ",
" .J x f 6   , r u u y y y y y y y y y y y r :   6 f A H L R ",
"T F c f % * w u y u y y y y y y y y y y y u r <   8 V A J K ",
"F Z k 4 X w u y u y y y y y y y y y y y y y u e     k D D J ",
"F Z p % - w y y u y y y y y y y y y y y y u y w *   i c D K ",
"F V p   e u y y y y y y y y y y y u r y v r y y e o 4 k D W ",
"Z k %   0 y y y y y y y y y y y u w ; M o.n = y w   2 c D ] ",
"G x 4 # 0 u y y y y y y t u y y u y M @.#.O.n y w   5 g J | ",
"W C 3 + 0 u y y y y u t u u t t y b +.#.+.$.N u w   5 k R Q ",
"L c 7 . 0 r y y y y y y y y y y y y M +.#.O.n w 0 O % B J L ",
"' j 7 o 0 0 y y y y y y y y y y y r = M X.b - 9 0 $ 4 c H Q ",
"} F a . : 0 w u y y y y y y y y y u r y u y r e * # s c L W ",
"K D h 1 o 0 0 r y y y y y y y y y y u y y r 9 q o # z V L L ",
"L K A i   < 0 - r y y y y y y y y y y u r 9 0 *   7 x F L ~ ",
"L J C c i X * 0 9 w r u y y y y y u r 0 9 0 *   6 V S J / } ",
"U L H C g 4   < 9 9 9 w w w w w w w 0 - 0 ;   5 z V D ! `  .",
"T L K C c d 5   * w 9 9 9 9 9 9 9 - 0 e * . # d A S G Y '  .",
"T U L F D c h #   + , q q 9 w q 9 w = o   2 l G L Q Y Y / ` ",
"L Y T U R J B h 4         + O o $ O   & i f F H K ] ~ L Y ! ",
"Y Y } ` W J A F z f j s 5 # 4 8 4 5 i B V c K L U ! Q R L K ",
"T / } ] ) Q L J F C Z z x Z V c B j x F F J L Q U L ! ! L J ",
"L U Y ` } ` T U H F J J H R K D F L U W / ` ! U L ! ` ` ! U ",
"J K U ` | ' T Y U K J K R R R J L Q W L / } / L R ! } } / Q "
};
