/* XPM */
static char *_6e55e83c432493cfcd8d0e936d4ee3dHW4KQYtODuxArp5T[] = {
/* columns rows colors chars-per-pixel */
"30 30 170 2 ",
"   c #7FA215",
".  c #87941D",
"X  c #839C1A",
"o  c #8D991F",
"O  c #939613",
"+  c #919917",
"@  c #9B9519",
"#  c #A59D19",
"$  c #80A315",
"%  c #84A915",
"&  c #88AD17",
"*  c #84A61A",
"=  c #8CA41C",
"-  c #86AA1C",
";  c #8AAC1D",
":  c #95A115",
">  c #95A31B",
",  c #90AA1E",
"<  c #9CAB1B",
"1  c #8EB912",
"2  c #8EB21E",
"3  c #8FB819",
"4  c #91B51F",
"5  c #93B91F",
"6  c #9F8A23",
"7  c #889C24",
"8  c #9D9323",
"9  c #939D22",
"0  c #98942E",
"q  c #A78C27",
"w  c #AA8D27",
"e  c #B28E2C",
"r  c #A29424",
"t  c #AC9426",
"y  c #A89C26",
"u  c #AD902A",
"i  c #A29F2F",
"p  c #B49426",
"a  c #BE8932",
"s  c #BD8C3A",
"d  c #AC993C",
"f  c #B99436",
"g  c #BB9A34",
"h  c #8FAA26",
"j  c #92A220",
"k  c #9DA522",
"l  c #96AF20",
"z  c #9AA92F",
"x  c #92B620",
"c  c #98B421",
"v  c #95BB20",
"b  c #98BE20",
"n  c #9DB429",
"m  c #9FB130",
"M  c #AEA126",
"N  c #A2A734",
"B  c #A5AD35",
"V  c #A9A03C",
"C  c #A5A938",
"Z  c #ABB03B",
"A  c #C38E36",
"S  c #C3893C",
"D  c #CB8E3E",
"F  c #C69736",
"G  c #96C01C",
"H  c #9FCA1F",
"J  c #9CC421",
"K  c #9FC822",
"L  c #A2CC23",
"P  c #A6D123",
"I  c #AE9C40",
"U  c #B1AC43",
"Y  c #B3B342",
"T  c #B8B546",
"R  c #C38840",
"E  c #CA8A41",
"W  c #CE8F4C",
"Q  c #D58A47",
"!  c #C8994C",
"~  c #CD9C4C",
"^  c #D2924A",
"/  c #CF8F53",
"(  c #D29454",
")  c #D69956",
"_  c #DA9059",
"`  c #D99559",
"'  c #D39C5D",
"]  c #E68F56",
"[  c #E9935A",
"{  c #E09D5F",
"}  c #C2AD4F",
"|  c #C3AD54",
" . c #D7A455",
".. c #C6B552",
"X. c #C9B752",
"o. c #CCB95B",
"O. c #D1BE55",
"+. c #D79865",
"@. c #DA9D66",
"#. c #DA9F74",
"$. c #EE9465",
"%. c #E29E67",
"&. c #F79C6E",
"*. c #FA9E6E",
"=. c #F69973",
"-. c #FC9F72",
";. c #D2AF62",
":. c #DDA16A",
">. c #DDAD6B",
",. c #D6B965",
"<. c #D8B169",
"1. c #DDA67B",
"2. c #DFBB71",
"3. c #EFA66C",
"4. c #E7A96C",
"5. c #ECAA6D",
"6. c #F5A46B",
"7. c #E4B16E",
"8. c #E1A772",
"9. c #E2A975",
"0. c #ECA27F",
"q. c #E4AD7A",
"w. c #F7A677",
"e. c #F2A972",
"r. c #FDA27C",
"t. c #E3B472",
"y. c #E8B274",
"u. c #E3BC74",
"i. c #E4BE79",
"p. c #DEC16B",
"a. c #DEC171",
"s. c #EAC77F",
"d. c #EEA380",
"f. c #E1AB82",
"g. c #FCA382",
"h. c #FEA788",
"j. c #F6A88A",
"k. c #FDA98B",
"l. c #FDAC93",
"z. c #E6B596",
"x. c #EAB892",
"c. c #E9B699",
"v. c #E8B99C",
"b. c #F2BCA5",
"n. c #FEBAA5",
"m. c #F7BEAB",
"M. c #FABCAA",
"N. c #EBC2A7",
"B. c #EBC1AA",
"V. c #F1C0A8",
"C. c #EDC8B2",
"Z. c #F5C8B4",
"A. c #FCC7BA",
"S. c #F6CABA",
"D. c #FEC9BA",
"F. c #F4D1BD",
"G. c #F5D5C3",
"H. c #FFD5CC",
"J. c #F4DACD",
"K. c #FDDCD4",
"L. c #F7E6DD",
"P. c #FDE4DC",
"I. c #F9E8DF",
"U. c #FEE6E0",
"Y. c #FDEAE5",
"T. c #FEEEEA",
"R. c #FDF1ED",
"E. c #FEF5F3",
"W. c #FDF9F6",
"Q. c #FEFDFC",
/* pixels */
"P K 4 2 v 4 2 K L b 4 L L v 2 x J P L J 3 2 x J K P P K J ; ",
"L J 4 v b v 2 v K b 4 J K v x 5 v J J x x x 4 x J P K K v 4 ",
"4 x 5 J L J - ; x v v 5 4 v v 4 2 ; 2 4 x x 2 - J P J 4 v v ",
"4 v b K L J x x x x v v v v v 5 5 x 2 4 J J x 2 v J v 4 4 4 ",
"v b L L v J L J v 2 x K L 5 4 v J L K 5 J L K 5 4 4 3 x 2 h ",
"4 b K J 4 b L b 2 5 x G 5 3 & 2 3 G G 5 b K L K v 4 J J 3 ; ",
"2 x v v 4 5 v 4 ; x v 2 - - % % * * ; ; 4 v K L J v K P J v ",
"J b 4 2 4 4 4 v J 3 2 m Z B Z B N C z * % 2 5 H v x J K v 4 ",
"L K ; ; v 5 4 5 K 3 h T O.X.X...} } U 7 $ ; ; 4 2 x x v 4 x ",
"J b 4 v L 5 2 & 3 n Y o.p.,.p.a.<.;.| V 9 $   h v K v 2 2 ; ",
"4 4 v K L x ; X 7 Y o.p.u.2.a.s.y.>.;.~ I 7 X = b L J 2 ; - ",
"x 4 5 5 b = . 0 d o.p.2.u.u.i.2.3.4.>.{ / I i l 4 v v x 2 ; ",
"b x 4 4 2 X 6 s ! ,.2.>.t.y.t.7.*.w.e.&.$.^ g M ; 4 5 5 x x ",
"4 4 ; ; % : ' ` ! ;.<.5.e.3.4.5.g.h.g.g.j.] Q q = 5 4 5 J L ",
"4 ; ; ; h # C.b._  .%.-.-.6.6.6.h.l.l.M.K.0.#.S o x 2 5 K L ",
"v 4 ; 4 b p J.W.d.[ =.k.l.l.h.r.n.n.D.P.Q.S.S.8.: - 2 v v v ",
"J b v x < +.R.Q.G.M.D.K.P.P.H.A.P.K.T.Q.Q.T.Q.C.p , 4 5 4 2 ",
"L v + q R B.Q.Q.R.P.Y.R.E.R.T.P.T.Y.E.Q.Q.Q.Q.Y.1.F t o ; v ",
"c y A / 1.J.Q.Q.R.P.P.Y.R.R.R.T.U.U.T.E.Q.Q.Q.E.N.:.^ a 8 = ",
"j e E ` 1.C.Q.Q.R.Y.T.T.E.E.E.R.T.T.T.E.E.Q.Q.L.z.#.( D w 7 ",
"; 9 u D ( @.v.I.T.L.I.T.E.W.E.T.U.T.R.W.E.R.L.z.+./ S u j x ",
"2 4 ; k M g a ) 9.q.x.V.S.F.G.Z.A.m.b.c.f.+.W s e r o = K P ",
"x x 2 x J J c < < @ # g g t f ~ ~ s u @ O + > 4 4 2 x v K P ",
"v 4 ; ; x J L K v 2 x H L 5 4 H K 4 5 5 4 ; 5 L J 4 5 v L L ",
"5 4 2 4 4 v K b 4 4 4 5 5 5 4 1 1 3 G K J 2 v J J J v x J K ",
"4 4 v v 4 4 v 4 4 v b 4 4 v 5 2 ; 5 J P K v 4 4 J L J 4 x x ",
"v b L K x 4 x ; ; J L J v K K 5 5 2 J P K x x x x J x 4 2 ; ",
"4 v L L J v 4 ; ; v L b v K L J 5 2 5 K J v x v 3 4 v v 4 - ",
"; 4 v K L J v 4 2 2 x 4 x J J 2 2 x v v J K J 2 x v K K v x ",
"- ; 4 K L L v 5 2 ; - ; 4 x x - - v x 2 J P J 2 4 J K L J v "
};
