/* XPM */
static char *b5ec2bab20bc40c5bd960afb38e70387sTHtsI1tf8M7Mdlm[] = {
/* columns rows colors chars-per-pixel */
"30 30 97 2 ",
"   c #010000",
".  c #0A0200",
"X  c #130000",
"o  c #190000",
"O  c #240100",
"+  c #370000",
"@  c #3D0000",
"#  c #2D2900",
"$  c #322B00",
"%  c #3A2C00",
"&  c #3E3100",
"*  c #430000",
"=  c #4B0100",
"-  c #540000",
";  c #5D0000",
":  c #491C01",
">  c #630000",
",  c #6B0000",
"<  c #730000",
"1  c #7C0000",
"2  c #522B02",
"3  c #423300",
"4  c #433800",
"5  c #523D01",
"6  c #574604",
"7  c #5C4800",
"8  c #624D00",
"9  c #665000",
"0  c #695A09",
"q  c #6E650C",
"w  c #73710F",
"e  c #757911",
"r  c #820000",
"t  c #8C0000",
"y  c #920000",
"u  c #9D0000",
"i  c #A30000",
"p  c #AB0000",
"a  c #B10000",
"s  c #BF0000",
"d  c #985409",
"f  c #9A5809",
"g  c #836700",
"h  c #8B6E00",
"j  c #9A600B",
"k  c #93690E",
"l  c #957500",
"z  c #9B7A00",
"x  c #947A11",
"c  c #997F12",
"v  c #768614",
"b  c #798C16",
"n  c #8D8C16",
"m  c #968915",
"M  c #819617",
"N  c #829A19",
"B  c #9C9116",
"V  c #949E1A",
"C  c #999A18",
"Z  c #B78F00",
"A  c #86A71C",
"S  c #89A51B",
"D  c #87AA1D",
"F  c #8AAD1D",
"G  c #93A31B",
"H  c #99AE1D",
"J  c #8EB21E",
"K  c #91B51F",
"L  c #94B61F",
"P  c #93BB1C",
"I  c #93B81F",
"U  c #97BA1F",
"Y  c #A1AE1D",
"T  c #93B720",
"R  c #93B820",
"E  c #94B920",
"W  c #94BA20",
"Q  c #95BB20",
"!  c #96BB20",
"~  c #97BE20",
"^  c #98BE20",
"/  c #C49900",
"(  c #CDA100",
")  c #99C021",
"_  c #9BC221",
"`  c #9BC321",
"'  c #9CC322",
"]  c #9EC722",
"[  c #9FC822",
"{  c #A0C722",
"}  c #A0C822",
"|  c #A3CC23",
" . c #A3CD23",
".. c #A4CE23",
"X. c #A5CF23",
"o. c #A5D023",
"O. c #A7D224",
/* pixels */
"O.} I J R I J ] | _ K ] } W K F U [ ` I I J I W ] ..O.} ~ J ",
"} _ I W _ W J ~ ] ~ I _ ] F S * * * * * A D I L ] ..| [ ~ J ",
"I I I _ | _ D F T R R I N * * , , > > , * * N F _ .._ I ~ ~ ",
"J R _ ] } _ R T I K W M = , > 1 r r r 1 > , * b W ] W J J I ",
"W _ | } U ] } [ ^ J v = , 1 t r i p i r t 1 , = v K R I J D ",
"T W { ' I _ } ~ J e - < 1 t u p s s s p u t 1 < - I _ _ J J ",
"K I W W J I W J D * ; 1 t i u p p a a a u i y r > w _ | ` R ",
"' ^ J J I I I I q = < t y t u u y u t t r r r , ; @ _ [ _ R ",
"| [ F F W W F ] * < 1 y < y i t i t , , = * - ; > ; 0 R T J ",
"` ~ R I { ] R 6 - 1 r 1 y t t 1 t > ; = o O + + + @ O T J F ",
"J K I [ ..' 5 ; > 1 , 1 t 1 > , > > =   4 $ 4 #     $ J F D ",
"R I U I [ I ; > ; , ; 1 > , * ; ; * X 5 h Z g 6 % & 4 J J F ",
"R ~ K K W : > * ; @ > > ; @ @ > * @   8 l ( / h & 4 & ~ R T ",
"I J F D J ; * @ * @ * ; * @ @ * @ X   3 9 z z 9 4 & 3 T [ | ",
"I J D F * ; ; @ @ @ @ * @ @ @ @ @       & 7 7 & & . & R ] | ",
"W T F K ; ; > @ ; * @ @ @ * @ @ @ .       & & &     . R R R ",
"_ ^ I * > > r ; ; ; ; * ; ; @ * @ * . X         X X @ R T J ",
"..{ G > r 1 1 > > ; ; > ; * * ; @ @ * @ o . o o @ @ * J R ~ ",
"} ] r 1 1 1 > 1 1 ; ; ; ; > ; + * * > * @ = @ @ * * 2 I I R ",
"^ n t 1 r r r 1 ; > ; ; > ; ; = ; ; ; > * ; = * ; , I W I J ",
"R i p t i 1 1 1 , r , , r , ; ; , , ; ; , , ; ; , 1 J R ~ ~ ",
"J f d i u t 1 t r 1 1 r 1 r , , r 1 , , r r , , 1 u I I ] o.",
"R R J p u i t u 1 1 t 1 1 1 r r 1 1 1 y 1 1 r 1 t j I W [ O.",
"~ K D k p p u u y t i 1 1 t 1 1 1 1 y u t 1 1 y u J I _ } ..",
"I I J J x m p u u u u y y i y 1 1 y i u u y y u p ' I U ` [ ",
"J R ~ L K K m p p p u u u u u y y u u u u i u u B | U J I I ",
"R ~ } [ W K I n m C p u u i u u u u u u u i u p R ) P R J F ",
"I _ | } ~ R K F F ^ H i i Y i i u y u u i V i V K R R ) J D ",
"F I _ _ | _ ~ J K J J G G _ L G i u i u H { H I R W [ } U R ",
"A F I _ o.[ ~ R J F D F J W T F S L K G ' ..' J I ) [ [ _ ) "
};
