/* XPM */
static char *_46f4d3c5be043ffbe8b532b0a694fc83WpxpHaZ99GnKp6A[] = {
/* columns rows colors chars-per-pixel */
"30 30 161 2 ",
"   c #7E941D",
".  c #938C1D",
"X  c #849C1C",
"o  c #8A9D1D",
"O  c #96971E",
"+  c #939C1E",
"@  c #A78C1F",
"#  c #84A31B",
"$  c #8BA41D",
"%  c #86AA1C",
"&  c #8BAD1D",
"*  c #93A51E",
"=  c #9CA71C",
"-  c #90AD1E",
";  c #8AB417",
":  c #8EB912",
">  c #8EB21E",
",  c #8FB818",
"<  c #94B011",
"1  c #91B51F",
"2  c #94BA1E",
"3  c #8D8C28",
"4  c #9B8D27",
"5  c #8D9623",
"6  c #8C9A21",
"7  c #959620",
"8  c #9E9121",
"9  c #919C21",
"0  c #9F9E23",
"q  c #98962D",
"w  c #A58723",
"e  c #B18526",
"r  c #B28E27",
"t  c #B4852F",
"y  c #B38B2B",
"u  c #BC8E2F",
"i  c #A29322",
"p  c #A89D27",
"a  c #A79028",
"s  c #AE972C",
"d  c #B39627",
"f  c #AD8D31",
"g  c #B98630",
"h  c #BA8B32",
"j  c #BD8E3E",
"k  c #A89839",
"l  c #BB9532",
"z  c #8FA220",
"x  c #92A320",
"c  c #9AA223",
"v  c #94AB21",
"b  c #9CAB27",
"n  c #97A72E",
"m  c #94B620",
"M  c #9BB422",
"N  c #95BB20",
"B  c #98BE21",
"V  c #A4A424",
"C  c #ACA221",
"Z  c #A8B62F",
"A  c #A4A837",
"S  c #A5A939",
"D  c #AEAD3B",
"F  c #ACB431",
"G  c #C58938",
"H  c #C79433",
"J  c #C3953E",
"K  c #CA973C",
"L  c #9FCA1F",
"P  c #9CC421",
"I  c #9FC822",
"U  c #A2CC23",
"Y  c #A6D124",
"T  c #ADA742",
"R  c #BEA54C",
"E  c #BDBC4A",
"W  c #CA8845",
"Q  c #CA8648",
"!  c #C08F4D",
"~  c #CA8F4A",
"^  c #C39E4F",
"/  c #D4974D",
"(  c #CD8F51",
")  c #DC8E58",
"_  c #D39252",
"`  c #D59758",
"'  c #D8915E",
"]  c #D79F5E",
"[  c #E29151",
"{  c #E2985F",
"}  c #F0955E",
"|  c #C1A24C",
" . c #C1AD4E",
".. c #C2BA4F",
"X. c #CEAB5E",
"o. c #D6A35F",
"O. c #D79A69",
"+. c #F4966B",
"@. c #F79F6F",
"#. c #FC9C6F",
"$. c #E89D77",
"%. c #F49D70",
"&. c #FB9D72",
"*. c #F99D79",
"=. c #D1AF61",
"-. c #DBA866",
";. c #DCA16E",
":. c #D1A86A",
">. c #DCAE6B",
",. c #DAAA77",
"<. c #DFA57E",
"1. c #E5A06D",
"2. c #EAA66E",
"3. c #F9A06C",
"4. c #ECAC71",
"5. c #E2AA7D",
"6. c #F8A174",
"7. c #F2A871",
"8. c #FCA37F",
"9. c #E7A581",
"0. c #E9A381",
"q. c #E4AC83",
"w. c #E4AF8A",
"e. c #EAAB8C",
"r. c #FDA584",
"t. c #F3A78D",
"y. c #FAA88C",
"u. c #E4B085",
"i. c #F6AE95",
"p. c #FEAB90",
"a. c #E6B894",
"s. c #E8BA9C",
"d. c #F3B39B",
"f. c #FDB39C",
"g. c #ECBDA2",
"h. c #FDB6A3",
"j. c #F4BAA4",
"k. c #FCB8A5",
"l. c #FFBEAB",
"z. c #FEBFB1",
"x. c #ECC1A8",
"c. c #FEC0AD",
"v. c #EFCEBE",
"b. c #F7C6B4",
"n. c #F1CEBC",
"m. c #FECABD",
"M. c #FECDC2",
"N. c #F3D3C1",
"B. c #FBD0C4",
"V. c #FDD5CB",
"C. c #FEDCD4",
"Z. c #F8E1D6",
"A. c #F7E7DD",
"S. c #F6E7E0",
"D. c #FFE7E1",
"F. c #FDE9E4",
"G. c #FEEDE9",
"H. c #FDF1ED",
"J. c #FEF4F3",
"K. c #FDF8F6",
"L. c #FFFDFC",
/* pixels */
"Y I 1 > N 1 > P Y N 1 I I N 1 2 P U U N 2 > 1 N I U Y U N & ",
"U P 1 N N m > m I N 1 P I N 1 2 2 P B 2 > 1 2 > I Y U I N 1 ",
"1 m 2 P U N % & 1 m N > 2 1 2 1 & & & & 1 m & % P Y P 1 N N ",
"> m B I I B > > > 1 m P N N 1 1 1 & & & 1 N > > m P N > > 2 ",
"N P U I 2 2 P B 1 & > L I m > 1 N P N m m P B 1 > 2 m N > % ",
"1 N I P > m B m % % > 2 2 ; % % ; > & - 1 m B B 2 1 P P 2 & ",
"1 m N 1 & & v % X o > & # # %   3 X X 6 7 z m P N N I U P N ",
"P N > > & $ X z * o # n S A A n q k q 3 4 o v N 1 1 P P N 2 ",
"Y I & % z $ O c V O 5 T  . . .| R | j 3 . 4 6 $ z > N N 1 1 ",
"P N 1 > m c i a r h k R =.X.=.>.-.] / j g e . $ ; P P > & & ",
"> 1 2 N b p u h Q ) / o.>.-.>.4.7.@.} [ ) W w 9 1 U P & & v ",
"N 1 2 > i y W ' $.t.+.1.1.2.4.3.#.#.&.+.d.$.K i & P N N > % ",
"N m 1 % a G O.e.b.B.#.%.%.6.3.6.8.r.p.*.i.j.{ C z > 1 P N m ",
"1 > & X y ` a.N.A.J.f.r.r.r.6.r.f.h.z.y.b.Z.9.@   P > 1 P U ",
"2 & % X h 5.N.G.K.J.m.k.m.l.r.f.c.m.C.h.C.L.x.e 6 N > 2 P U ",
"2 > z x J g.H.K.L.J.C.M.B.V.f.c.m.C.L.m.F.L.N.H 6 % 1 N m N ",
"P N > * / n.L.L.L.L.J.F.F.G.C.G.F.J.L.D.J.L.Z./ = & 2 N m > ",
"I N & 8 <.A.L.L.L.L.L.J.J.J.G.G.J.J.L.K.L.L.H.w.l M & & N N ",
"B v 0 ( v.J.L.L.L.L.J.J.J.J.G.J.H.J.J.J.K.L.L.A.w.d 6 # > m ",
"v z 4 _ x.S.L.J.K.L.J.K.J.L.L.J.J.J.J.L.G.K.A.N.q.t 7 z & > ",
"1 % o 0 j ;.g.v.G.L.K.J.J.H.F.F.G.F.J.D.v.s.;.~ a 5 6 v 2 P ",
"& 1 m N P = = s ^ :.,.9.e.u.q.e.t.0.O.! f 8 + $ & > > 2 P U ",
"N m > m B N L P L 1 1 Z F < m E ..D b & ; & 1 2 2 1 1 N I Y ",
"N m & & 2 I U P 2 1 1 I U 2 N I L 1 1 2 1 % L U P 1 1 P I Y ",
"2 1 > > 2 P P N 2 1 1 N P 1 ; : : , 2 I P > 2 P P P N m P P ",
"> m P N > m 2 1 > N N 2 > N N & & 2 L U I P > 1 P I P 1 1 P ",
"m P I I m > 1 > & N I P 2 P P 1 1 1 P U I > 1 m 2 P 2 1 > % ",
"2 N U I P m 1 > % P I P P I U P 1 1 2 U I m m N > 1 N N > z ",
"& > P P I P m > 1 > 2 1 1 P P > > 1 N N P I B m 2 1 I I N 2 ",
"% > > P Y U N 2 1 % % & 1 N 1 z & N N > B U I > > P I Y P N "
};
