/* XPM */
static char *_15878976ccd4250f666136e72981be0D1HyGuBtZemniR9G[] = {
/* columns rows colors chars-per-pixel */
"30 30 158 2 ",
"   c #7E9C1D",
".  c #8C8D1F",
"X  c #85911C",
"o  c #849B1C",
"O  c #8C9D1E",
"+  c #93901E",
"@  c #989D1F",
"#  c #84A41C",
"$  c #8BA51E",
"%  c #86A91D",
"&  c #8BAC1E",
"*  c #92A21D",
"=  c #91AA1C",
"-  c #9AAB1B",
";  c #8AB417",
":  c #8EB912",
">  c #8EB21E",
",  c #8FB818",
"<  c #91B51F",
"1  c #94BA1F",
"2  c #A6AD1A",
"3  c #9C8621",
"4  c #978D21",
"5  c #9C8B23",
"6  c #8F9920",
"7  c #949421",
"8  c #9C9323",
"9  c #969B22",
"0  c #9B9B23",
"q  c #A18624",
"w  c #A78D26",
"e  c #AB8825",
"r  c #AA8328",
"t  c #A58D2D",
"y  c #AC8C2B",
"u  c #B7872C",
"i  c #BC872B",
"p  c #B28D2C",
"a  c #BE8A2F",
"s  c #A39225",
"d  c #A89323",
"f  c #A59C24",
"g  c #AD9C26",
"h  c #AA9128",
"j  c #B49922",
"k  c #B7922A",
"l  c #B1992C",
"z  c #BB9C28",
"x  c #BB8433",
"c  c #B48D35",
"v  c #BD8A32",
"b  c #B78B3A",
"n  c #BE8A3D",
"m  c #AA9135",
"M  c #B59C3A",
"N  c #8EA120",
"B  c #94A521",
"V  c #9CA523",
"C  c #94AD20",
"Z  c #9BAC23",
"A  c #8FB520",
"S  c #94B520",
"D  c #9AB421",
"F  c #95BB20",
"G  c #99BE20",
"H  c #A0B52D",
"J  c #C2902C",
"K  c #C4853D",
"L  c #C28D38",
"P  c #CB923C",
"I  c #99C114",
"U  c #97C31A",
"Y  c #99C21E",
"T  c #9FCA1F",
"R  c #9CC421",
"E  c #9FC822",
"W  c #9FC428",
"Q  c #A0C721",
"!  c #A2CB23",
"~  c #A6D124",
"^  c #B4C537",
"/  c #B5BA41",
"(  c #CD8643",
")  c #CB8D44",
"_  c #CD8E4D",
"`  c #DB8B4E",
"'  c #CE934A",
"]  c #C49C49",
"[  c #DD8C55",
"{  c #DE8F5E",
"}  c #CD9456",
"|  c #CF9559",
" . c #D49454",
".. c #D59855",
"X. c #D5965B",
"o. c #D69858",
"O. c #D89B58",
"+. c #E4905A",
"@. c #ED945D",
"#. c #D69966",
"$. c #DA9B65",
"%. c #DB9E6D",
"&. c #DB9E73",
"*. c #EB9363",
"=. c #E29968",
"-. c #F69768",
";. c #EE9B74",
":. c #F89A74",
">. c #F19F7C",
",. c #DDA375",
"<. c #DEA679",
"1. c #E1A473",
"2. c #E0A876",
"3. c #F7A17E",
"4. c #C6CE53",
"5. c #CBCA57",
"6. c #DFAB81",
"7. c #E3AD87",
"8. c #E9A889",
"9. c #FBA485",
"0. c #F7A88B",
"q. c #FDA88A",
"w. c #E8B88F",
"e. c #E6B799",
"r. c #E6B89C",
"t. c #E9BC9B",
"y. c #FBB39C",
"u. c #EBBDA3",
"i. c #FFBCA8",
"p. c #EDC5AC",
"a. c #EFCAB6",
"s. c #EECDBA",
"d. c #F7C2B1",
"f. c #FEC5B5",
"g. c #FDC7B8",
"h. c #F3CCBA",
"j. c #FECBBD",
"k. c #F1D1BC",
"l. c #FCCEC2",
"z. c #F6D2C4",
"x. c #F9D4CA",
"c. c #F3DBCD",
"v. c #FCD8CF",
"b. c #F6DCD0",
"n. c #FDDAD2",
"m. c #FEDFD8",
"M. c #F4E0D4",
"N. c #FAE0D7",
"B. c #F7E7DD",
"V. c #FCE4DC",
"C. c #FFE7E1",
"Z. c #F7ECE5",
"A. c #FCE9E3",
"S. c #FEEDE9",
"D. c #FCF2EE",
"F. c #FDF5F3",
"G. c #FEF8F6",
"H. c #FFFCFC",
/* pixels */
"~ Q S A S < > G R < & R Q S & & S E E 1 > > > 1 E ~ ~ ! G > ",
"Q R < < G < & > F < & F F < & & C G G > > > & > R ~ ! R F A ",
"< < < G R F # # $ & $ & $ C S $ o # # & $ & $ % R Q R > G F ",
"> S G R G S $ o O O B & & $ & O 6 % % $ & < & # > R G A A A ",
"G R ! G C C D V 9 6 O Z Z $ $ 9 0 D S $ = Z C $ & > S < > & ",
"> G R < $ B Z 0 q 8 8 * @ O   + 8 = * 9 0 V Z C & & R R , & ",
"> > < & O 9 9 y x y w 4 3 . X q r . 4 7 8 h f Z C > Q ~ R S ",
"R R > # 6 5 w L o.a u n ( c m K ( c x 5 e v k f $ $ R R R A ",
"~ R & o 0 p i ..w.' K [ *.` ' +.*.` ` K K ) P c 7 # A S S A ",
"R G & N g P ) <.b.=.{ ;.0.*.@.3.9.*.;.[ X.&.#.) f C G A & & ",
"> < > B z O.<.u.H.u.>.y.f.:.-.y.i.9.y.>.8.u.e.%.j Z R A & & ",
"< < = 9 L 7.s.b.H.z.y.l.V.q.q.f.l.y.l.y.d.z.b.u.J 9 , > > & ",
"G S > 7 ) u.D.Z.H.V.g.m.G.i.y.n.V.f.A.l.v.A.F.k.' 5 S S F F ",
"< > o 4 ) k.H.G.H.D.n.C.H.j.f.D.A.n.G.V.A.G.G.M.X.8 > S R ! ",
"> >   4 o.c.H.H.H.G.C.S.H.V.V.H.G.S.H.F.H.H.H.Z.,.s > > R ! ",
"S > & d 2.B.H.H.H.H.G.H.H.G.H.H.H.H.H.H.H.H.H.F.e.y < A S F ",
"R 1 8 $.h.G.H.H.H.H.H.H.H.H.H.H.H.H.H.H.H.H.H.H.B.<.y * A > ",
"G l O.p.B.H.H.H.H.H.H.H.G.H.H.G.H.H.H.G.H.H.H.H.F.k.1._ 8 < ",
"D P 1.r.c.F.H.H.H.H.H.H.H.G.H.H.G.H.G.H.H.H.H.H.Z.p.6.#.p & ",
"< 9 n X.7.a.Z.F.H.H.H.H.H.H.H.H.H.H.H.H.H.H.Z.c.e.&. .c O & ",
"< < & @ l n | <.t.h.N.n.N.A.A.A.V.N.x.h.p.t.$.' b 5 O S S R ",
", > > R ! R = - 2 2 M } } ] ] $.=...n t 4 @ $ $ A G A S R ~ ",
"S S > 1 R E E E R U U ^ ^ I W 4.5./ H < ; > 1 T G A > F E ~ ",
"R F & > < E ! E F > < T ! 1 > T ! < < 1 < & 1 ! R , S Y E ~ ",
"> < > , S G R R A A S U U A , ; : : Y R R > A R R R F S R E ",
"> A G G , < F S A S G A > F G A & < R ~ E R , A R ! R A < S ",
"S R E R S > A & & R E R S E E S < < R ~ E > > S S R S A > & ",
"A R ! E R S A A % G E R R E E R < < 1 Q E S F G , A F G > % ",
"> A R R E R F A > > , A S R R > > < F F R E R > A G E E G A ",
"% & , R ~ E G S > & % & A S A & & G < > G ~ R > A G ! ! R G "
};
