/* XPM */
static char *_2f164ecae7e41beef2e499713a27ee9rzHrIA7aGrrBJV3u[] = {
/* columns rows colors chars-per-pixel */
"30 30 69 1 ",
"  c #010100",
". c #060900",
"X c #090E00",
"o c #0D1201",
"O c #101701",
"+ c #131A01",
"@ c #192201",
"# c #222D02",
"$ c #263203",
"% c #293604",
"& c #2D3A04",
"* c #313F05",
"= c #060F23",
"- c #091738",
"; c #354406",
": c #3A4A07",
"> c #3E4F08",
", c #3F5108",
"< c #415408",
"1 c #465A0A",
"2 c #4A5E0A",
"3 c #4E640C",
"4 c #50650D",
"5 c #556C0E",
"6 c #586F0F",
"7 c #59720F",
"8 c #5D7510",
"9 c #627C12",
"0 c #668113",
"q c #6A8514",
"w c #6E8B15",
"e c #718E16",
"r c #749317",
"t c #789717",
"y c #799A17",
"u c #769418",
"i c #789618",
"p c #7B9B19",
"a c #7FA01A",
"s c #82A41B",
"d c #86A91C",
"f c #89AD1D",
"g c #8CAF1D",
"h c #8BB01D",
"j c #8FB31F",
"k c #90B31F",
"l c #91B71F",
"z c #93B81F",
"x c #95BB1F",
"c c #95BC1F",
"v c #93B820",
"b c #95BA20",
"n c #96BB20",
"m c #97BD20",
"M c #98BE20",
"N c #9BC221",
"B c #9CC321",
"V c #9CC521",
"C c #9FC722",
"Z c #9FC822",
"A c #A0C822",
"S c #A3CC23",
"D c #A4CE23",
"F c #A5D023",
"G c #A6D023",
"H c #A7D224",
"J c #143B9B",
"K c #1B53CA",
"L c #2471EC",
/* pixels */
"HAzjvzjCSjdZbdpfljfpadfcAGGSmj",
"ANzvNvfmCsswr98eq80wasuhzGSCbl",
"llzNSNdwyw32;:&:%;%$4470zGmjbb",
"kvNCCNurw<o+         $13qjfjlz",
"bNSCfxy6#   ========  .*0yhzff",
"lmBBse6:  ==--------==o ;qwdhh",
"kvbse9&  =------------= o$0tsf",
"BMjw7;. =--------------=. ;9hl",
"GCfw<  =----------------=  :pr",
"Nfqq% =------------------= #9r",
"jps5 O=------------------=  40",
"bx9> =--------------------=o;8",
"bv9:X=--------------------= @9",
"lr5; =---=JJ=------=JJ=---= #9",
"vi0+o=--=KLLK=----=KLLK=--= Oq",
"vs6$X=--JLLLLJ----JLLLLJ--= %6",
"BM6;o==-JLLLLJ----JLLLLJ-==.@r",
"Ddi:.==-=KLLK=----=KLLK=-== >7",
"ACe:  ==-=JJ=------=JJ=-==  2p",
"Mmd6@X===--------------=== @7u",
"ldp95  ===------------===  <9z",
"kjvdq$  ====--------====o ,ruD",
"bldyrq:. ============== X#6dxC",
"blffdyq;. ============ .&9tcZS",
"zlkgljue%@  ========   $7ssfMC",
"llMxglsr0*:.X  .. XO +19pChjzx",
"bMACvlkse962#<#;#:&2:6wjdflljf",
"vNAANbjssxvyqw89w09ufjppdlbcjd",
"flMCACblggvksvxdfrsbdCjllxAAxl",
"dflCDCmvlddglbldfxxjMDCjlMSDBb"
};
