/* XPM */
static char *_29bd9a2c6494e8ad2fe94c621db2f9agpwq32X5XgyluFdr[] = {
/* columns rows colors chars-per-pixel */
"30 30 104 2 ",
"   c #020302",
".  c #060900",
"X  c #080D00",
"o  c #02040C",
"O  c #060C0A",
"+  c #0C1201",
"@  c #0B130C",
"#  c #151D01",
"$  c #020613",
"%  c #060D14",
"&  c #020618",
"*  c #050E1E",
"=  c #0B1312",
"-  c #08141D",
";  c #172001",
":  c #1B2502",
">  c #212C02",
",  c #273303",
"<  c #283503",
"1  c #2C3A04",
"2  c #2C3D0A",
"3  c #303E05",
"4  c #060F21",
"5  c #071224",
"6  c #091524",
"7  c #07122B",
"8  c #09152C",
"9  c #071432",
"0  c #091634",
"q  c #0A1837",
"w  c #091738",
"e  c #09183B",
"r  c #334205",
"t  c #33450B",
"y  c #374A0D",
"u  c #394A0B",
"i  c #3E530E",
"p  c #42550E",
"a  c #45590F",
"s  c #495D0E",
"d  c #4C610F",
"f  c #5A720F",
"g  c #4E6310",
"h  c #516611",
"j  c #546A11",
"k  c #5C7513",
"l  c #637D13",
"z  c #091342",
"x  c #0A1A41",
"c  c #091B4C",
"v  c #0A1B54",
"b  c #0C1E5E",
"n  c #0A2260",
"m  c #0D276C",
"M  c #668115",
"N  c #6A8515",
"B  c #6E8B15",
"V  c #6A8618",
"C  c #6D8918",
"Z  c #718E16",
"A  c #759417",
"S  c #779518",
"D  c #789718",
"F  c #7C9C19",
"G  c #82A41B",
"H  c #86A91C",
"J  c #8AAD1D",
"K  c #8EB21E",
"L  c #91B61F",
"P  c #93B81F",
"I  c #94B91F",
"U  c #93B820",
"Y  c #94B920",
"T  c #94BA20",
"R  c #96BC20",
"E  c #98BE20",
"W  c #99C020",
"Q  c #9AC120",
"!  c #9BC221",
"~  c #9BC321",
"^  c #9CC321",
"/  c #9DC622",
"(  c #9FC722",
")  c #9FC822",
"_  c #A0C822",
"`  c #A2CC23",
"'  c #A3CD23",
"]  c #A4CE23",
"[  c #A5D023",
"{  c #A7D224",
"}  c #10358B",
"|  c #12328F",
" . c #153B9E",
".. c #184AB0",
"X. c #194DB7",
"o. c #1C57CD",
"O. c #1D5ACB",
"+. c #1E5DCF",
"@. c #1E5DD7",
"#. c #1F61D9",
"$. c #2166E2",
"%. c #236FE9",
"&. c #2471EA",
"*. c #2575F3",
/* pixels */
"{ _ P K U P K ( ] E K ( ' R K Y ! { ' ! P K L ! ( [ { ' R K ",
"_ ! P Y ! I K R ( R P ! ! Y P P R ! R U U K K L ~ [ ' ~ U P ",
"P P P ! ] ! J J K U J J D H K A G S B F K L J J ! { ! K T R ",
"K U ! ( ( ! K J K D D l l h k k g M k M J F G K R ( I K K P ",
"Y ! _ _ E ( ! P D a 1 # : < . # > 1 : i N D J K K K P U K H ",
"U Y _ ^ J J I B s :   o o % o o o o     < g B H K U ! ~ K K ",
"L U Y Y F Z B 2 . @ O 8 0 9 8 0 9 0 8 o o + y A S G ~ ' ! R ",
"^ E J H G k t   . 8 9 q q q q q q q q 8 8     2 f D H W W K ",
"[ ! G Z B r +   7 q w w w w w w w q w w w 7     t B S U K K ",
"! P F F g   . 8 w q q q w w w w w w q q q w 4 . X u l S J J ",
"K K A j ; o 7 w q w w w w w w w w w w w w w w 7 o : k F H H ",
"P P l 2   @ 9 q q w w w w w w w q w w w e w w 9 O   p Z A J ",
"I J C 3 o 6 w w w w w w w w w q e w w q 7 e 0 q 7 O r l J U ",
"P Z h > o 8 q w w w w w w w w w 0 e * c  .m . x 8 o # V K ' ",
"L G s : o 8 w w w w w w w w w w e % n @.&.$.} . 0 @ + s F _ ",
"U J g ; @ 7 q w w w w w w w w w 9 z X.*.%.*.@.b - &   h J Y ",
"! K j X o 8 q q w w w q w w w w 9 e ..*.&.*.O.v 6 & ; s F U ",
"] J k > $ 5 7 w w w w w w w q w e % v o.%.#.}   9 @ r l F Y ",
"_ K k 1 = * 8 q w w w w w w w w w z 5 w | b   9 * o t k F Y ",
"I J l t X $ 4 7 w w q w w q w w w w q e 6 q 9 4 %   u A P K ",
"K K G l > o 5 4 7 w w w w w e 0 w w q q e 7 4 5 o . l H K ! ",
"K K G G d X   5 4 7 9 w w w e e e w 0 9 7 4 6   . s B A P ] ",
"U K G F B p .   5 4 * 7 9 9 9 7 9 7 7 * 5 * o   i B F J _ { ",
"R U H H F A p     4 7 4 * * * * 4 4 4 5 5 o   2 N F P P ) [ ",
"P P K K G G A 2   o % 6 8 5 5 8 5 7 6 = o + y f P K K P ! ) ",
"K U R I J G P N a <   o = o $ o $ o o # : p B H ! ~ R K P Y ",
"Y I _ ( U J G A f l t 1 3 + X > # 1 : s s B J K U R P P K J ",
"Y ! ] _ ! U J S F G A M j k B s l g j D U G G P P P R R K H ",
"K K ! ( ) ! R K L F J J Z P J J D F J U ! P ! L P U ) _ R P ",
"H J P ! ' ' I P L J G J L P L J J U U K ! [ ! K P R _ ] ! R "
};
