/* XPM */
static char *e3306435463b4ca7fcc1fb78e9025063MxG3nEUBuJ1iluWT[] = {
/* columns rows colors chars-per-pixel */
"30 30 86 1 ",
"  c #010102",
". c #050A02",
"X c #080D03",
"o c #030508",
"O c #060C0A",
"+ c #080E09",
"@ c #0C1403",
"# c #151C01",
"$ c #131B0B",
"% c #030715",
"& c #040A16",
"* c #060E1C",
"= c #0D1617",
"- c #121B18",
"; c #1B2402",
": c #1F2902",
"> c #222D02",
", c #253103",
"< c #293503",
"1 c #2E3C04",
"2 c #050E21",
"3 c #061125",
"4 c #081427",
"5 c #07122A",
"6 c #08132B",
"7 c #071430",
"8 c #091635",
"9 c #091738",
"0 c #09183B",
"q c #334305",
"w c #3B4C07",
"e c #3D4E08",
"r c #42550A",
"t c #465A0C",
"y c #495E0B",
"u c #4D630C",
"i c #51660D",
"p c #556C0E",
"a c #5B730F",
"s c #566D12",
"d c #5D7512",
"f c #5F7810",
"g c #627C12",
"h c #668113",
"j c #698514",
"k c #6D8915",
"l c #718E15",
"z c #759317",
"x c #799917",
"c c #769518",
"v c #789718",
"b c #7C9C19",
"n c #7FA019",
"m c #83A51B",
"M c #86A81C",
"N c #86A91C",
"B c #87AA1D",
"V c #88AA1D",
"C c #89AC1C",
"Z c #8AAF1D",
"A c #8CAF1D",
"S c #8CB01E",
"D c #8FB31F",
"F c #8FB41E",
"G c #8FB41F",
"H c #90B31F",
"J c #92B71F",
"K c #92B81F",
"L c #94B91F",
"P c #92B820",
"I c #93B820",
"U c #94B920",
"Y c #97BD20",
"T c #98BE20",
"R c #9BC221",
"E c #9BC321",
"W c #9CC321",
"Q c #9CC421",
"! c #9FC722",
"~ c #9FC822",
"^ c #A0C822",
"/ c #A2CC23",
"( c #A4CE23",
") c #A5CF23",
"_ c #A5D023",
"` c #A7D224",
/* pixels */
"`^KDJJJ^(TJ!^KHKW(^LKFIL~_`/YD",
"^RJURLAU!TDVMbclbnDDDJGF~_^!UJ",
"JJKW(RMZDMmlidhipjzjmYbbR/RJLY",
"HIR!!RZbkpyq,1>q;@wqpkcMKRIDJK",
"UR(^T!^bi:#@X   Xo  @eumMFJKDN",
"JY^LZFxr>  %6566536& @#fxcK!FD",
"DIJHczr# &67099909066& 1hhZ^RL",
"WTDMkr> &7999999080006% #uzVKK",
"`LMmf#X&709999999989807% >rlbF",
"RDlg1X*70899999999099807= >gvM",
"HJby@ 6980899999999999903 .pcv",
"JMmu &7908099999999999996% 1sc",
"Lbj> 609999999999999990806 :gb",
"JMp# 499999999999999999805.:hM",
"HMp,o699999999999998988003O,dS",
"UDg1@697999999999999900805.#hz",
"WVg;o279999999999999999973@;dm",
"(bd;O330999999999999999925$;jZ",
"^Hgw.%4609999999999990062- qvP",
"TZcgXo3279999999999990622@@rbM",
"JZcke.%32799999999990623=.wpJJ",
"DKmzjq %325709980906523% 1gMR~",
"KJSbbt<.-22255555553*4-o>gjZ~_",
"YJMbJbs;o%62*22*22*34%.@pgMF^_",
"JJDZMbld#. *6333236%X <rcbIJR!",
"HJYLDmzjuq# + ooOO  .>yc!RYDKI",
"UT^!IDZMzzsu<,<#<#qerszDZLIJDZ",
"IR^^RUDmVZmbigaifupbbbVZDDYYFV",
"ZJT!^!UDDZMMvmLmcbDMmKYIJI!^LK",
"MZJR_~YIJVMZHLJVDIJDT(!FJY//RY"
};
