/* XPM */
static char *_6d994af8a6d4cade45f5a70c987435biqc3hsR0zj3UiBZL[] = {
/* columns rows colors chars-per-pixel */
"30 30 116 2 ",
"   c #010201",
".  c #060A01",
"X  c #0A0F00",
"o  c #01040B",
"O  c #040B0B",
"+  c #080E08",
"@  c #0D1401",
"#  c #0B140D",
"$  c #101701",
"%  c #151D01",
"&  c #020611",
"*  c #070F16",
"=  c #020618",
"-  c #060E1D",
";  c #0B1312",
":  c #08151D",
">  c #101912",
",  c #172001",
"<  c #192201",
"1  c #222C02",
"2  c #253203",
"3  c #293604",
"4  c #2D3B04",
"5  c #2D3B09",
"6  c #060F21",
"7  c #071123",
"8  c #091425",
"9  c #0C1923",
"0  c #07132B",
"q  c #09142C",
"w  c #0B182A",
"e  c #071432",
"r  c #091635",
"t  c #091738",
"y  c #09183B",
"u  c #2E400A",
"i  c #334205",
"p  c #36490C",
"a  c #3B4C0C",
"s  c #3D520E",
"d  c #42550E",
"f  c #45590E",
"g  c #4A5E0F",
"h  c #455C10",
"j  c #4C610F",
"k  c #51670D",
"l  c #546B0E",
"z  c #59710F",
"x  c #4D6310",
"c  c #4E6812",
"v  c #506511",
"b  c #556B12",
"n  c #586F13",
"m  c #5B7412",
"M  c #5F7813",
"N  c #627C14",
"B  c #091342",
"V  c #0A1A41",
"C  c #091B4C",
"Z  c #0B1B54",
"A  c #0C1E5E",
"S  c #0A2260",
"D  c #0D276C",
"F  c #0E2E7F",
"G  c #668113",
"H  c #698516",
"J  c #6D8A15",
"K  c #6E8A18",
"L  c #718F16",
"P  c #759317",
"I  c #789617",
"U  c #759418",
"Y  c #7C9B19",
"T  c #7FA01A",
"R  c #83A41B",
"E  c #86A91C",
"W  c #8AAD1D",
"Q  c #8EB21E",
"!  c #91B61F",
"~  c #93B91F",
"^  c #92B720",
"/  c #95BA20",
"(  c #96BC20",
")  c #98BE20",
"_  c #98C021",
"`  c #9AC120",
"'  c #9BC221",
"]  c #9BC321",
"[  c #9CC321",
"{  c #9CC421",
"}  c #9DC622",
"|  c #9FC722",
" . c #9FC822",
".. c #A0C822",
"X. c #A2CC23",
"o. c #A4CE23",
"O. c #A5CF23",
"+. c #A5D023",
"@. c #A6D023",
"#. c #A7D224",
"$. c #10358B",
"%. c #12328F",
"&. c #153B9E",
"*. c #184AB0",
"=. c #194DB7",
"-. c #1C57CD",
";. c #1D5ACB",
":. c #1E5DCF",
">. c #1E5DD7",
",. c #1F61D9",
"<. c #2166E2",
"1. c #236FE9",
"2. c #2470E8",
"3. c #2573ED",
"4. c #2574F2",
"5. c #2575F3",
/* pixels */
"#...~ Q ~ ~ Q ..@.( Q  .@.( Q ^ | o.o.[ ! Q ~ (  .o.@.X.( Q ",
"..' ! / ' ~ Q ~  .( ^ (  ./ ! ^ ~ ' ( ~ ! ! Q ~ | o.X. .( Q ",
"! ^ ~ ' o.' E Q Q ( R I E W Y R Y J Y W E ~ Q W ' o.' Q ( ( ",
"! ^ ' | ..' ~ Q R Y L H N M m f c n K Y Y Q W E ( | ( Q Q ! ",
"/ ' ....) ~ ~ Q H d s 4 1 $ % $ < 1 4 a N E I E Q ^ ^ ~ Q E ",
"! ( | [ ~ ! R J i $   O o ; # o o o o X , f J Y R Q ' ' Q Q ",
"! ^ / ! R Y M p X o # w e e e q q r q # o   p U R ^ ..o.] ( ",
"' ) Q R I z 5     0 e r y t t t t t t q 0   @ x Y R ~ ( ( ^ ",
"@.' R T N s .   8 t t t t t t t t r t r r q   X p z E ^ ^ Q ",
"' ! U R g     w t t t t t t t t t t t t t y 8     p U R W W ",
"Q Q Y J < o 0 t t t t t t t t t t t t t t t t q o 3 M Y E E ",
"/ ! J a   o q t t y t t t t t t t t t t t t t q o X d Y Q W ",
"/ Y n 2 o 0 r y r q t t t t t t t t t t t t t r 0 o % L W ^ ",
"! E x 3 o q V   D &.C * y t t t t t t t t t t y q o 4 m W o.",
"! W d @ o r . $.<.3.>.S * y t t t t t t t t t y q o @ g Y ..",
"^ Y N 1 = : A :.4.1.4.=.B e t t t t t t t t t y q # $ N E ^ ",
"| ~ N 4 - 7 Z ;.4.3.4.*.y e t t t t t t t t t t 0 O @ k P Q ",
"X.W J 4 o r   F ,.2.-.Z - y t t t t t t t t t q 7 & p H E ~ ",
"..~ I 4 ; - t . A %.e 8 y t t t t t t t t t t 0 7 o i J I ^ ",
"' ! L 5   & - e t 8 y y r t t t t t t r t t 0 7 ;   5 P E ! ",
"~ E P k % o 6 6 0 y t t t t t r t t t t t 0 - 7 O 1 l Q ( ( ",
"Q Q Y N b @ o 9 8 0 e t y y t y t t t e 0 6 6 o   f J Q  .X.",
"~ Q R R J f X . 9 - - 0 e 0 e q e q 0 - 6 : + X u l Y ! ..#.",
"( ! E W I M h @ o 6 0 6 6 6 - 6 - 6 6 8 8 o . c M Y Q Q  .#.",
"~ ! Q W R R G p   o ; 8 0 6 0 8 6 0 6 & o % p L R ! Q ! ' | ",
"Q ~ ) ~ Q ! Y G a .   o ; > o & ; & o   4 j z Y / ) ) Q ~ ~ ",
"^ ( .. ./ Q ^ E L k d < 1 1 4 2 1 3 1 g N Y R E ! ( ~ ! Q W ",
"~ ' o...) / Q T J E Y L H N K m n v J Y P ^ / ! ! ! ( ) Q E ",
"W ! ~ ....| ^ Q W R E ! E ~ ~ P L Y / ! / ..' ! ! /  ...( ! ",
"E W ! | o.X.( ~ ! E E W ! / ! E W ~ / Q ' o.[ Q ! ) ..o.| ( "
};
