/* XPM */
static char *_9ffb3b125a84195be8afd194d67905aczaZkzjqy3LecJUP[] = {
/* columns rows colors chars-per-pixel */
"30 30 144 2 ",
"   c #393623",
".  c #3E3A29",
"X  c #433B27",
"o  c #433E2C",
"O  c #46412E",
"+  c #4A422D",
"@  c #4B4A2C",
"#  c #50472E",
"$  c #544F2E",
"%  c #4E502B",
"&  c #52552C",
"*  c #58562F",
"=  c #5C5A2F",
"-  c #474230",
";  c #4B4532",
":  c #524733",
">  c #534A35",
",  c #584C36",
"<  c #564D39",
"1  c #594E39",
"2  c #5B5435",
"3  c #5D5932",
"4  c #5D523D",
"5  c #60543D",
"6  c #606A29",
"7  c #6C7627",
"8  c #656630",
"9  c #666831",
"0  c #6C663F",
"q  c #6B6A3F",
"w  c #717635",
"e  c #73743E",
"r  c #5D5643",
"t  c #615541",
"y  c #665A45",
"u  c #695C46",
"i  c #665D4A",
"p  c #695D48",
"a  c #6D6545",
"s  c #6D614C",
"d  c #756E47",
"f  c #71644F",
"g  c #756C4D",
"h  c #7B7B44",
"j  c #76714C",
"k  c #736651",
"l  c #756954",
"z  c #796D57",
"x  c #776D58",
"c  c #7B6E59",
"v  c #7D715A",
"b  c #82755F",
"n  c #837761",
"m  c #867A63",
"M  c #897D65",
"N  c #8A7F68",
"B  c #728320",
"V  c #7A8F26",
"C  c #778C28",
"Z  c #7B9225",
"A  c #7E9824",
"S  c #7F9429",
"D  c #829D1A",
"F  c #84A21E",
"G  c #86A91D",
"H  c #8AAD1D",
"J  c #8EB21E",
"K  c #91B61F",
"L  c #93B81F",
"P  c #829C25",
"I  c #82962B",
"U  c #869D2B",
"Y  c #839632",
"T  c #879A35",
"R  c #879639",
"E  c #89993A",
"W  c #86A324",
"Q  c #89A525",
"!  c #8CAB23",
"~  c #8BA32D",
"^  c #8EAB29",
"/  c #8EB021",
"(  c #92B521",
")  c #95BB20",
"_  c #98BF20",
"`  c #94B32B",
"'  c #8FA834",
"]  c #92AC32",
"[  c #9CC321",
"{  c #9FC822",
"}  c #A2CC23",
"|  c #A6D124",
" . c #869242",
".. c #8C9A42",
"X. c #878359",
"o. c #8A855D",
"O. c #93A344",
"+. c #95A04F",
"@. c #9FB04A",
"#. c #A5BB49",
"$. c #A7B950",
"%. c #8A8260",
"&. c #8D826A",
"*. c #918C64",
"=. c #91856D",
"-. c #928670",
";. c #958A72",
":. c #9A8E75",
">. c #9C8F79",
",. c #9E9277",
"<. c #9F9279",
"1. c #A2967D",
"2. c #A59A7F",
"3. c #A59781",
"4. c #A69982",
"5. c #AA9D84",
"6. c #AC9E88",
"7. c #AEA286",
"8. c #AEA18A",
"9. c #B0A387",
"0. c #B2A58B",
"q. c #B6AA8E",
"w. c #BCAE93",
"e. c #C1B68F",
"r. c #C2B496",
"t. c #C6B996",
"y. c #C4B699",
"u. c #C7B99A",
"i. c #CBBD9B",
"p. c #CCBE9F",
"a. c #CDBFA0",
"s. c #CEC09F",
"d. c #D1C39F",
"f. c #D3C99D",
"g. c #D3C5A2",
"h. c #D5C7A3",
"j. c #D8CAA5",
"k. c #D9CBA6",
"l. c #DBCDA7",
"z. c #DDCFA9",
"x. c #DCCEAA",
"c. c #DFD1AA",
"v. c #E0D2AA",
"b. c #E9DAB3",
/* pixels */
"| { K J ) K K { } [ K } } ) ( L [ } } [ / / K [ [ | | } [ J ",
"} [ K ) _ ) H ) { _ L _ [ ^ U U ~ W / ) L ) J K [ | } [ ) K ",
"K K K [ } _ G H ( ) ) L / R a g a & 7 / ) ) / H [ | [ K ) ) ",
"K ) _ } } [ ) K K L ) G R b <.=.%.v q C A P Q J ) [ ) J J K ",
") _ } } L [ } [ ) K / Y z 3.0.1.;.&.z > + 4 S ) K K ) ) ! G ",
"K ) } [ L _ } _ K ~ E b 5.y.u.6.:.N f > + < 9 I / K [ [ J J ",
"K K ) ) K L ) K G  .N 6.r.h.a.9.&.v t - X O > 2 S ) } } [ ) ",
"[ _ K H K K K ^ ..*.9.r.a.v.d.5.n s < O . . ; , 9 C ( [ [ J ",
"| [ H H L L K ..=.6.r.a.l.c.i.,.k r o o O - > 2 4 2 I ) ( ( ",
"_ ) ) ) } `  .*.6.r.a.j.j.a.w.=.y < X X < p f l s , P K H G ",
"K K ) [ } O.=.0.r.a.z.z.a.r.2.n r - o 4 c =.;.&.l 2 S H H G ",
") L ) D 7 *.r.g.a.h.l.c.h.r.:.b t o r m 7.r.q.:.z # 8 7 W H ",
") L K T b e.j.v.k.k.k.k.p.6.N b r X i ;.r.j.r.>.z > 5 2 P ) ",
"K / H @.r.z.j.l.k.k.h.s.r.<.b u : . i N 9.y.0.=.z u y 3 ^ } ",
"K / G $.f.b.k.h.h.k.j.r.5.-.l 4 X X r v >.6.>.n z k u = Q } ",
"L L / #.r.z.k.a.r.g.j.w.>.M p :   . 1 k M ;.M l k f u 3 P ( ",
"[ L G +.2.u.g.r.8.y.s.9.&.z t 1 ; - < u l b l k f k u 3 P K ",
"} ` e b N 5.r.0.4.0.w.4.n y > p u < : 1 u l l k l k a 3 P ) ",
"} ] g M n :.3.<.;.4.6.&.s 4 4 z l p 1 ; < u f k s s r * P ) ",
"L ~ j b M N N M &.<.<.v > 5 f n n l t - ; 1 p k y 1 > % A J ",
"L P 0 b M M c c b &.-.s 5 ,.5.:.&.n s - X o p l y : ; % A [ ",
"K P * l M n k k l n M s b t.h.7.;.&.l ;   o t k a > : % W | ",
"L P $ f n z y p f l v v :.r.a.8.:.&.x < X o < t < ; > @ Q | ",
"L P 3 u k p < t k f l =.5.0.0.4.:.&.c 1 ; o o o O O - & Q | ",
"L G V I Y w 1 f b c m 2.0.9.3.>.N n l i 5 1 : O ; - 6 Z ( { ",
"/ L _ ( K V 5 5 d c =.5.q.2.;.N v l k l p 2 $ @ o & W J K L ",
"( _ } [ L H I I I w c :.5.1.;.M b c b b h I A Z V A / / J H ",
"L ) } } L L K H G B 5 j o.o.X.j d j g g E L L L K J [ ) J H ",
"/ K L } } [ L L ( F P U ' ] ] U I ~ ~ ~ ` } L L K L { { L L ",
"G H K [ | { L L K G G H ) ) K ! H L L K [ } [ K J [ { | [ ) "
};
